<svg width="300" height="28" viewBox="0 0 300 28" fill="none" xmlns="http://www.w3.org/2000/svg">
<g clip-path="url(#clip0_17577_10170)">
<rect width="300" height="28" rx="14" fill="white"/>
<mask id="path-2-inside-1_17577_10170" fill="white">
<path fill-rule="evenodd" clip-rule="evenodd" d="M22.5767 15.8291C23.2363 14.9783 23.5472 13.9081 23.4461 12.8362C23.345 11.7643 22.8395 10.7712 22.0324 10.0589C21.2253 9.34666 20.1773 8.96873 19.1016 9.00203C18.0258 9.03533 17.0032 9.47736 16.2417 10.2382C15.4795 10.9995 15.0362 12.023 15.0021 13.1C14.968 14.1769 15.3457 15.2264 16.0582 16.0345C16.7708 16.8425 17.7644 17.3484 18.8368 17.449C19.9092 17.5495 20.9796 17.2373 21.8298 16.5758L21.8525 16.5996L24.0965 18.8449C24.1456 18.8941 24.204 18.9331 24.2682 18.9597C24.3324 18.9863 24.4012 19 24.4707 19C24.5402 19 24.6091 18.9863 24.6733 18.9597C24.7375 18.9331 24.7958 18.8941 24.845 18.8449C24.8941 18.7958 24.9331 18.7374 24.9597 18.6731C24.9863 18.6089 25 18.54 25 18.4705C25 18.401 24.9863 18.3321 24.9597 18.2679C24.9331 18.2037 24.8941 18.1453 24.845 18.0961L22.6005 15.8513C22.5928 15.8437 22.5849 15.8363 22.5767 15.8291ZM21.4786 10.987C21.7772 11.2809 22.0148 11.6311 22.1774 12.0174C22.3401 12.4036 22.4248 12.8183 22.4265 13.2374C22.4282 13.6566 22.3469 14.0719 22.1874 14.4595C22.0278 14.847 21.7932 15.1991 21.4969 15.4955C21.2007 15.7919 20.8487 16.0267 20.4613 16.1863C20.0739 16.3459 19.6587 16.4272 19.2397 16.4255C18.8208 16.4238 18.4063 16.3391 18.0202 16.1763C17.6341 16.0136 17.284 15.7759 16.9902 15.4772C16.403 14.8801 16.0754 14.075 16.0788 13.2374C16.0822 12.3998 16.4163 11.5975 17.0084 11.0052C17.6004 10.4129 18.4024 10.0787 19.2397 10.0753C20.077 10.0718 20.8817 10.3995 21.4786 10.987Z"/>
</mask>
<path fill-rule="evenodd" clip-rule="evenodd" d="M22.5767 15.8291C23.2363 14.9783 23.5472 13.9081 23.4461 12.8362C23.345 11.7643 22.8395 10.7712 22.0324 10.0589C21.2253 9.34666 20.1773 8.96873 19.1016 9.00203C18.0258 9.03533 17.0032 9.47736 16.2417 10.2382C15.4795 10.9995 15.0362 12.023 15.0021 13.1C14.968 14.1769 15.3457 15.2264 16.0582 16.0345C16.7708 16.8425 17.7644 17.3484 18.8368 17.449C19.9092 17.5495 20.9796 17.2373 21.8298 16.5758L21.8525 16.5996L24.0965 18.8449C24.1456 18.8941 24.204 18.9331 24.2682 18.9597C24.3324 18.9863 24.4012 19 24.4707 19C24.5402 19 24.6091 18.9863 24.6733 18.9597C24.7375 18.9331 24.7958 18.8941 24.845 18.8449C24.8941 18.7958 24.9331 18.7374 24.9597 18.6731C24.9863 18.6089 25 18.54 25 18.4705C25 18.401 24.9863 18.3321 24.9597 18.2679C24.9331 18.2037 24.8941 18.1453 24.845 18.0961L22.6005 15.8513C22.5928 15.8437 22.5849 15.8363 22.5767 15.8291ZM21.4786 10.987C21.7772 11.2809 22.0148 11.6311 22.1774 12.0174C22.3401 12.4036 22.4248 12.8183 22.4265 13.2374C22.4282 13.6566 22.3469 14.0719 22.1874 14.4595C22.0278 14.847 21.7932 15.1991 21.4969 15.4955C21.2007 15.7919 20.8487 16.0267 20.4613 16.1863C20.0739 16.3459 19.6587 16.4272 19.2397 16.4255C18.8208 16.4238 18.4063 16.3391 18.0202 16.1763C17.6341 16.0136 17.284 15.7759 16.9902 15.4772C16.403 14.8801 16.0754 14.075 16.0788 13.2374C16.0822 12.3998 16.4163 11.5975 17.0084 11.0052C17.6004 10.4129 18.4024 10.0787 19.2397 10.0753C20.077 10.0718 20.8817 10.3995 21.4786 10.987Z" fill="#363A45"/>
<path d="M16.2417 10.2382L17.6551 11.6532L17.6553 11.653L16.2417 10.2382ZM21.8298 16.5758L23.276 15.1943L22.0279 13.8876L20.6017 14.9972L21.8298 16.5758ZM21.8525 16.5996L20.4063 17.981L20.4219 17.9974L20.4379 18.0133L21.8525 16.5996ZM24.0965 18.8449L22.6818 20.2587L22.682 20.2589L24.0965 18.8449ZM25 18.4705H27H25ZM24.845 18.0961L26.2595 16.6822L26.2593 16.682L24.845 18.0961ZM22.6005 15.8513L24.0149 14.4372L24.0052 14.4277L22.6005 15.8513ZM21.4786 10.987L22.8815 9.56159V9.56159L21.4786 10.987ZM16.9902 15.4772L15.5642 16.8795H15.5642L16.9902 15.4772ZM24.1573 17.0546C25.1285 15.8019 25.5861 14.2264 25.4373 12.6484L21.4549 13.0241C21.5083 13.5899 21.3442 14.1547 20.9962 14.6036L24.1573 17.0546ZM25.4373 12.6484C25.2884 11.0704 24.5442 9.60819 23.3558 8.55939L20.709 11.5585C21.1347 11.9342 21.4016 12.4582 21.4549 13.0241L25.4373 12.6484ZM23.3558 8.55939C22.1673 7.51056 20.624 6.95394 19.0397 7.00299L19.1634 11.0011C19.7306 10.9835 20.2833 11.1828 20.709 11.5585L23.3558 8.55939ZM19.0397 7.00299C17.4554 7.05203 15.9494 7.70304 14.8281 8.82334L17.6553 11.653C18.057 11.2517 18.5963 11.0186 19.1634 11.0011L19.0397 7.00299ZM14.8282 8.82322C13.7059 9.94432 13.0533 11.4512 13.0031 13.0367L17.0011 13.1632C17.0191 12.5948 17.2531 12.0548 17.6551 11.6532L14.8282 8.82322ZM13.0031 13.0367C12.9529 14.6222 13.509 16.1674 14.5581 17.3572L17.5584 14.7117C17.1825 14.2854 16.9831 13.7317 17.0011 13.1632L13.0031 13.0367ZM14.5581 17.3572C15.6073 18.5471 17.0706 19.2921 18.6501 19.4402L19.0236 15.4577C18.4583 15.4047 17.9342 15.138 17.5584 14.7117L14.5581 17.3572ZM18.6501 19.4402C20.2295 19.5884 21.8059 19.1284 23.0579 18.1543L20.6017 14.9972C20.1533 15.3461 19.5889 15.5107 19.0236 15.4577L18.6501 19.4402ZM20.3836 17.9572L20.4063 17.981L23.2988 15.2181L23.276 15.1943L20.3836 17.9572ZM20.4379 18.0133L22.6818 20.2587L25.5111 17.4312L23.2672 15.1858L20.4379 18.0133ZM22.682 20.2589C22.9168 20.4938 23.1956 20.6802 23.5026 20.8073L25.0338 17.112C25.2123 17.186 25.3744 17.2944 25.511 17.431L22.682 20.2589ZM23.5026 20.8073C23.8095 20.9345 24.1385 21 24.4707 21V17C24.664 17 24.8553 17.0381 25.0338 17.112L23.5026 20.8073ZM24.4707 21C24.803 21 25.132 20.9345 25.4389 20.8073L23.9076 17.112C24.0861 17.0381 24.2775 17 24.4707 17V21ZM25.4389 20.8073C25.7458 20.6802 26.0247 20.4938 26.2595 20.2589L23.4305 17.431C23.567 17.2944 23.7291 17.186 23.9076 17.112L25.4389 20.8073ZM26.2595 20.2589C26.4943 20.0239 26.6805 19.7451 26.8076 19.4382L23.1118 17.908C23.1857 17.7297 23.2939 17.5676 23.4305 17.431L26.2595 20.2589ZM26.8076 19.4382C26.9346 19.1314 27 18.8026 27 18.4705H23C23 18.2775 23.038 18.0864 23.1118 17.908L26.8076 19.4382ZM27 18.4705C27 18.1384 26.9346 17.8096 26.8076 17.5028L23.1118 19.033C23.038 18.8547 23 18.6635 23 18.4705H27ZM26.8076 17.5028C26.6805 17.196 26.4943 16.9171 26.2595 16.6822L23.4305 19.51C23.2939 19.3735 23.1857 19.2113 23.1118 19.033L26.8076 17.5028ZM26.2593 16.682L24.0149 14.4372L21.1862 17.2654L23.4307 19.5102L26.2593 16.682ZM24.0052 14.4277C23.9714 14.3942 23.9365 14.3617 23.9008 14.3301L21.2526 17.328C21.2332 17.3108 21.2142 17.2931 21.1958 17.2749L24.0052 14.4277ZM20.0756 12.4124C20.1861 12.5211 20.274 12.6508 20.3343 12.7938L24.0206 11.241C23.7555 10.6115 23.3683 10.0407 22.8815 9.56159L20.0756 12.4124ZM20.3343 12.7938C20.3945 12.9368 20.4259 13.0903 20.4265 13.2456L24.4265 13.2293C24.4237 12.5462 24.2858 11.8705 24.0206 11.241L20.3343 12.7938ZM20.4265 13.2456C20.4271 13.4008 20.397 13.5546 20.338 13.6981L24.0368 15.2208C24.2968 14.5892 24.4293 13.9123 24.4265 13.2293L20.4265 13.2456ZM20.338 13.6981C20.2789 13.8416 20.192 13.9719 20.0824 14.0816L22.9114 16.9094C23.3943 16.4264 23.7768 15.8524 24.0368 15.2208L20.338 13.6981ZM20.0824 14.0816C19.9728 14.1912 19.8426 14.2781 19.6994 14.3371L21.2231 18.0355C21.8547 17.7753 22.4285 17.3926 22.9114 16.9094L20.0824 14.0816ZM19.6994 14.3371C19.5562 14.3961 19.4027 14.4261 19.2479 14.4255L19.2316 18.4255C19.9147 18.4282 20.5915 18.2957 21.2231 18.0355L19.6994 14.3371ZM19.2479 14.4255C19.093 14.4249 18.9398 14.3936 18.7971 14.3334L17.2433 18.0193C17.8727 18.2846 18.5485 18.4227 19.2316 18.4255L19.2479 14.4255ZM18.7971 14.3334C18.6543 14.2732 18.5249 14.1853 18.4161 14.0748L15.5642 16.8795C16.0432 17.3665 16.6138 17.7539 17.2433 18.0193L18.7971 14.3334ZM18.4161 14.0748C18.1989 13.8539 18.0775 13.5558 18.0788 13.2456L14.0788 13.2293C14.0733 14.5943 14.6071 15.9063 15.5642 16.8795L18.4161 14.0748ZM18.0788 13.2456C18.0801 12.9353 18.2038 12.6383 18.4229 12.4191L15.5939 9.59127C14.6288 10.5567 14.0844 11.8643 14.0788 13.2293L18.0788 13.2456ZM18.4229 12.4191C18.6419 12.2 18.9385 12.0765 19.2479 12.0752L19.2316 8.07527C17.8664 8.08083 16.559 8.62582 15.5939 9.59127L18.4229 12.4191ZM19.2479 12.0752C19.5573 12.074 19.8548 12.1951 20.0756 12.4124L22.8815 9.56159C21.9086 8.60403 20.5967 8.06971 19.2316 8.07527L19.2479 12.0752Z" fill="#363A45" mask="url(#path-2-inside-1_17577_10170)"/>
<path opacity="0.4" d="M42.8516 10.998C42.2314 10.998 41.7188 11.1982 41.3086 11.5986C40.8984 11.999 40.6934 12.502 40.6934 13.0977C40.6934 13.4004 40.7471 13.6787 40.8496 13.9229C40.957 14.167 41.0742 14.3574 41.2012 14.4941C41.333 14.6309 41.4795 14.7529 41.6455 14.8555C41.8115 14.9629 41.9287 15.0264 41.9922 15.0459C42.0557 15.0703 42.1045 15.0898 42.1436 15.1045L40.4932 18.0049H41.3428L42.8955 15.207H44.8975V18.0049H45.6445V11.0029L42.8516 10.998ZM44.8975 11.7061V14.5039H42.8467C42.4219 14.5039 42.0801 14.377 41.8262 14.123C41.5723 13.8691 41.4453 13.5322 41.4453 13.1025C41.4453 12.6729 41.5723 12.3359 41.8262 12.082C42.0801 11.8281 42.4219 11.7012 42.8467 11.7012L44.8975 11.7061ZM50.9521 16.0518L52.3535 18H53.2031L51.4014 15.5L53.0518 13.2002H52.2021L50.9521 14.9482L49.7021 13.2002H48.8525L50.5029 15.5L48.7012 18H49.5557L50.9521 16.0518ZM58.0078 15.6025C58.0078 16.1201 57.832 16.5596 57.4902 16.916C57.1484 17.2725 56.7334 17.4482 56.2549 17.4482C55.7764 17.4482 55.3613 17.2725 55.0195 16.9111C54.6777 16.5498 54.5068 16.1152 54.5068 15.5977C54.5068 15.0801 54.6777 14.6455 55.0195 14.2891C55.3613 13.9326 55.7764 13.752 56.2549 13.752C56.7334 13.752 57.1484 13.9326 57.4902 14.2891C57.832 14.6455 58.0078 15.085 58.0078 15.6025ZM53.8086 15.6025C53.8086 16.3057 54.043 16.8965 54.5215 17.3799C55 17.8584 55.5762 18.1025 56.2598 18.1025C56.9385 18.1025 57.5146 17.8584 57.9883 17.3799C58.4668 16.8965 58.7012 16.3057 58.7012 15.6025C58.7012 14.8994 58.4668 14.3086 57.9883 13.8252C57.5146 13.3418 56.9385 13.0977 56.2598 13.0977C55.5762 13.0977 55 13.3418 54.5215 13.8252C54.043 14.3086 53.8086 14.8994 53.8086 15.6025ZM63.0566 18H63.7598V13.2002H63.0566V15.3486L62.9102 15.4609C62.8125 15.5391 62.6562 15.6172 62.4414 15.6904C62.2266 15.7637 61.9971 15.7979 61.7578 15.7979C61.4062 15.7979 61.1182 15.6855 60.8936 15.4609C60.6689 15.2363 60.5566 14.9482 60.5566 14.6016V13.2002H59.8584V14.6016C59.8584 15.1484 60.0293 15.5977 60.3711 15.9395C60.7129 16.2812 61.1621 16.4521 61.709 16.4521C62.2363 16.4521 62.6855 16.3203 63.0566 16.0518V18ZM66.4111 18.6982C66.2305 19.2012 65.9277 19.4502 65.5029 19.4502C65.3369 19.4502 65.1709 19.416 65.0049 19.3477V20.002L65.0732 20.0215C65.1221 20.041 65.2002 20.0605 65.2979 20.0752C65.3955 20.0947 65.498 20.0996 65.6055 20.0996C65.9521 20.0996 66.2402 19.9971 66.4697 19.7822C66.6943 19.5674 66.9092 19.2061 67.1094 18.6982L69.3115 13.2002H68.5596L67.0117 17.1016L65.459 13.2002H64.707L66.6602 18L66.4111 18.6982ZM72.8662 16.6523L73.8184 15.6514L75.5176 18H76.3184L74.2676 15.1484L76.1182 13.2002H75.2637L72.8662 15.749V13.2002H72.168V18H72.8662V16.6523ZM78.2666 18.6982C78.0859 19.2012 77.7832 19.4502 77.3584 19.4502C77.1924 19.4502 77.0264 19.416 76.8604 19.3477V20.002L76.9287 20.0215C76.9775 20.041 77.0557 20.0605 77.1533 20.0752C77.251 20.0947 77.3535 20.0996 77.4609 20.0996C77.8076 20.0996 78.0957 19.9971 78.3252 19.7822C78.5498 19.5674 78.7646 19.2061 78.9648 18.6982L81.167 13.2002H80.415L78.8672 17.1016L77.3145 13.2002H76.5625L78.5156 18L78.2666 18.6982ZM85.5664 18H86.2695V13.2002H82.1191V18H82.8174V13.8594H85.5664V18ZM91.4697 13.2002L88.5693 16.7988V13.2002H87.8711V18H88.4668L91.3672 14.4014V18H92.0703V13.2002H91.4697ZM93.0713 13.8496H94.7705V18H95.4688V13.8496H97.168V13.2002H93.0713V13.8496ZM98.8721 17.3506V15.4512H100.122C100.439 15.4512 100.693 15.5391 100.884 15.7148C101.074 15.8906 101.172 16.1201 101.172 16.3984C101.172 16.6816 101.074 16.9111 100.884 17.0869C100.693 17.2627 100.444 17.3506 100.132 17.3506H98.8721ZM101.87 16.4033C101.87 15.9248 101.714 15.5342 101.401 15.2412C101.089 14.9482 100.659 14.8018 100.122 14.8018H98.8721V13.2002H98.1738V18H100.132C100.669 18 101.094 17.8535 101.406 17.5605C101.714 17.2676 101.87 16.8818 101.87 16.4033Z" fill="#363A45"/>
<path d="M211 0H295C297.761 0 300 2.23858 300 5V23C300 25.7614 297.761 28 295 28H211V0Z" fill="#DADCDC"/>
<path d="M244.311 9.19727H242.772V13.333H237.939V9.19727H236.401V19H237.939V14.7275H242.772V19H244.311V9.19727ZM252.008 19V14.6592C252.008 13.9482 251.741 13.3535 251.222 12.8682C250.695 12.3828 250.025 12.1367 249.205 12.1367C248.877 12.1367 248.556 12.1846 248.248 12.2734C247.94 12.3623 247.694 12.4648 247.51 12.5742C247.318 12.6904 247.141 12.8203 246.977 12.9639C246.812 13.1074 246.703 13.21 246.655 13.2646C246.607 13.3193 246.573 13.3672 246.546 13.4014L247.455 14.3105L247.64 14.0713C247.749 13.9209 247.947 13.7773 248.234 13.627C248.521 13.4766 248.85 13.4014 249.205 13.4014C249.615 13.4014 249.95 13.5244 250.21 13.7637C250.47 14.0098 250.606 14.3037 250.606 14.6592L248.152 15.083C247.544 15.1855 247.065 15.4248 246.717 15.7939C246.368 16.1699 246.197 16.6348 246.197 17.1885C246.197 17.6943 246.423 18.1523 246.874 18.5488C247.325 18.9453 247.893 19.1436 248.576 19.1436C248.809 19.1436 249.034 19.1094 249.267 19.0547C249.492 18.9932 249.684 18.9248 249.834 18.8496C249.984 18.7744 250.121 18.6924 250.251 18.5967C250.381 18.501 250.47 18.4395 250.511 18.3984C250.552 18.3574 250.586 18.3232 250.606 18.3096V19.0068L252.008 19ZM248.788 17.8857C248.419 17.8857 248.132 17.7969 247.913 17.6328C247.694 17.4619 247.592 17.2637 247.592 17.0381C247.592 16.7988 247.667 16.6006 247.824 16.4434C247.975 16.2793 248.18 16.1768 248.433 16.1357L250.606 15.7871V15.9238C250.606 16.5527 250.442 17.0312 250.121 17.373C249.8 17.7148 249.355 17.8857 248.788 17.8857ZM258.871 12.2803L255.371 16.6895V12.2803H253.97V19H255.228L258.728 14.5908V19H260.129V12.2803H258.871ZM257.046 10.1816C256.766 10.1816 256.533 10.0928 256.349 9.90137C256.157 9.70996 256.068 9.47754 256.068 9.19727H255.022C255.022 9.75781 255.214 10.2295 255.597 10.5986C255.979 10.9746 256.465 11.1592 257.053 11.1592C257.641 11.1592 258.126 10.9746 258.509 10.5986C258.892 10.2295 259.083 9.75781 259.083 9.19727H258.03C258.03 9.48438 257.935 9.7168 257.75 9.90137C257.559 10.0928 257.326 10.1816 257.046 10.1816ZM261.394 13.5381H263.704V19H265.099V13.5381H267.409V12.2803H261.394V13.5381ZM273.568 12.2803L270.068 16.6895V12.2803H268.667V19H269.925L273.425 14.5908V19H274.826V12.2803H273.568Z" fill="#363A45"/>
</g>
<defs>
<clipPath id="clip0_17577_10170">
<rect width="300" height="28" rx="14" fill="white"/>
</clipPath>
</defs>
</svg>
