<svg width="133" height="18" viewBox="0 0 133 18" fill="none" xmlns="http://www.w3.org/2000/svg">
<path d="M14.0247 12.8843L5.10506 3.44928C5.10506 3.36157 5.02282 3.08745 4.97348 2.76948C4.94732 2.21286 4.73714 1.68066 4.37591 1.25637C3.73449 0.642352 2.84087 0.203768 2.1501 0.395649L2.98889 1.28378C3.11298 1.39681 3.21269 1.53398 3.28193 1.68689C3.35116 1.8398 3.38846 2.00523 3.39154 2.17305C3.39462 2.34087 3.36341 2.50756 3.29983 2.6629C3.23626 2.81825 3.14164 2.95898 3.02179 3.07649C2.89748 3.18551 2.75208 3.2678 2.59463 3.31827C2.43718 3.36873 2.27103 3.38628 2.10651 3.36983C1.94199 3.35338 1.78261 3.30327 1.63827 3.22263C1.49393 3.14199 1.36771 3.03253 1.26745 2.90106L0.428663 2.01292C0.170996 2.69273 0.582168 3.60827 1.15233 4.28259C1.55846 4.67446 2.08269 4.92116 2.64351 4.98433C3.02727 5.07204 3.35072 5.16524 3.35072 5.16524L12.232 14.5674C12.1514 14.9348 12.1621 15.3164 12.2635 15.6787C12.3648 16.041 12.5536 16.3729 12.8132 16.6452C13.0137 16.859 13.2543 17.0312 13.5214 17.152C13.7885 17.2729 14.0767 17.3399 14.3697 17.3493C14.6627 17.3587 14.9546 17.3103 15.2289 17.2069C15.5032 17.1035 15.7544 16.9471 15.9682 16.7466C16.182 16.5461 16.3543 16.3054 16.4751 16.0383C16.5959 15.7713 16.6629 15.483 16.6724 15.1901C16.6818 14.8971 16.6334 14.6051 16.53 14.3308C16.4266 14.0566 16.2701 13.8053 16.0696 13.5915C15.8122 13.3159 15.4914 13.1074 15.135 12.9841C14.7786 12.8609 14.3974 12.8266 14.0247 12.8843Z" fill="white" stroke="#363A45" stroke-width="0.7" stroke-linecap="round" stroke-linejoin="round"/>
<path d="M15.9444 1.2221L15.4784 0.756104L15.3688 0.865749L12.9511 2.68039L13.2416 2.97095L8.81742 7.41709L7.9238 6.52895L7.37558 7.07718L7.60035 7.62541L7.05212 8.17364L0.824237 14.4454C0.565453 14.7053 0.420166 15.0572 0.420166 15.424C0.420166 15.7908 0.565453 16.1426 0.824237 16.4026L0.988706 16.5725C1.11752 16.7015 1.2705 16.8038 1.43888 16.8736C1.60727 16.9434 1.78776 16.9793 1.97004 16.9793C2.15232 16.9793 2.33281 16.9434 2.50119 16.8736C2.66957 16.8038 2.82255 16.7015 2.95137 16.5725L9.74393 9.81833L10.2922 10.0431L10.8404 9.49487L9.95225 8.60674L14.4422 4.16061L14.7383 4.45117L16.5694 2.04992L16.6735 1.94028L16.2021 1.4688L15.9444 1.2221Z" fill="white" stroke="#363A45" stroke-width="0.7" stroke-linecap="round" stroke-linejoin="round"/>
<path d="M8.41381 8.58561L8.10496 8.27344L7.95552 8.4262L8.03522 8.62214L7.83596 8.82139L4.24075 12.4299C4.19557 12.4747 4.1597 12.5279 4.13522 12.5867C4.11075 12.6454 4.09814 12.7083 4.09814 12.7719C4.09814 12.8356 4.11075 12.8985 4.13522 12.9572C4.1597 13.016 4.19557 13.0692 4.24075 13.114L4.30053 13.1738C4.3453 13.219 4.39858 13.2548 4.45729 13.2793C4.516 13.3038 4.57898 13.3164 4.64258 13.3164C4.70619 13.3164 4.76917 13.3038 4.82788 13.2793C4.88659 13.2548 4.93987 13.219 4.98464 13.1738L8.78907 9.37931L8.98169 9.45902L9.13113 9.30625L8.81896 8.99408L8.41381 8.58561Z" fill="#00C65E"/>
<path d="M15.3459 15.7023C15.2284 15.8887 15.0581 16.0359 14.8567 16.1251C14.6552 16.2143 14.4317 16.2415 14.2147 16.2031C13.9978 16.1648 13.7971 16.0626 13.6385 15.9098C13.4798 15.7569 13.3703 15.5602 13.3239 15.3448C13.2775 15.1294 13.2964 14.905 13.3781 14.7004C13.4597 14.4958 13.6005 14.3201 13.7825 14.1958C13.9644 14.0716 14.1793 14.0043 14.3996 14.0027C14.62 14.0011 14.8358 14.0652 15.0195 14.1867C15.1406 14.2647 15.245 14.3658 15.3269 14.4843C15.4089 14.6027 15.4666 14.7361 15.4969 14.8768C15.5273 15.0176 15.5295 15.163 15.5036 15.3046C15.4777 15.4462 15.4241 15.5814 15.3459 15.7023Z" fill="#00C65E"/>
<path d="M29.4762 4.25342H27.9313V7.19287C27.9313 8.34131 28.2252 9.22998 28.8199 9.84521C29.4147 10.4604 30.2418 10.7681 31.2946 10.7681C31.7457 10.7681 32.1969 10.7065 32.6344 10.5698C33.0719 10.4399 33.359 10.3374 33.4957 10.2622C33.6324 10.187 33.735 10.1187 33.8102 10.064V14.0562H35.3551V4.25342H33.8102V8.45752L33.5641 8.68311C33.3932 8.8335 33.1198 8.98389 32.7506 9.13428C32.3746 9.2915 31.985 9.3667 31.5748 9.3667C30.8981 9.3667 30.3785 9.18213 30.0162 8.80615C29.6539 8.43701 29.4762 7.89697 29.4762 7.19287V4.25342ZM36.9615 8.59424H39.2721V14.0562H40.6666V8.59424H42.9772V7.33643H36.9615V8.59424ZM49.4166 10.6997C49.4166 11.3286 49.2047 11.855 48.7946 12.2856C48.3776 12.7231 47.8854 12.9351 47.318 12.9351C46.7438 12.9351 46.2516 12.7231 45.8346 12.2856C45.4176 11.855 45.2125 11.3286 45.2125 10.6997C45.2125 10.0708 45.4176 9.54443 45.8346 9.10693C46.2516 8.67627 46.7438 8.45752 47.318 8.45752C47.8854 8.45752 48.3776 8.67627 48.7946 9.10693C49.2047 9.54443 49.4166 10.0708 49.4166 10.6997ZM43.818 10.6997C43.818 11.6431 44.1598 12.4565 44.8571 13.1538C45.5543 13.8511 46.3746 14.1997 47.318 14.1997C48.2614 14.1997 49.0748 13.8511 49.7721 13.1538C50.4694 12.4565 50.818 11.6431 50.818 10.6997C50.818 9.75635 50.4694 8.93604 49.7721 8.23877C49.0748 7.5415 48.2614 7.19287 47.318 7.19287C46.3746 7.19287 45.5543 7.5415 44.8571 8.23877C44.1598 8.93604 43.818 9.75635 43.818 10.6997ZM58.7272 10.2759L56.2799 7.33643H55.1588V14.0562H56.5602V9.64697L58.7272 12.2378L60.901 9.64697V14.0562H62.3024V7.33643H61.1813L58.7272 10.2759ZM65.6656 12.8667V10.6245H67.1354C67.4498 10.6245 67.7164 10.7339 67.9352 10.9458C68.1471 11.1646 68.2565 11.4312 68.2565 11.7456C68.2565 12.0669 68.1471 12.3335 67.9352 12.5454C67.7164 12.7642 67.4498 12.8667 67.1354 12.8667H65.6656ZM69.6578 11.7524C69.6578 11.0825 69.4254 10.5288 68.9606 10.0913C68.4957 9.65381 67.8873 9.43506 67.1285 9.43506H65.6588V7.33643H64.2574V14.0562H67.1285C67.8873 14.0562 68.4957 13.8442 68.9606 13.4067C69.4254 12.9761 69.6578 12.4224 69.6578 11.7524ZM72.0367 7.34326H70.6354V14.063H72.0367V7.34326ZM81.0055 14.0562H82.4V7.33643H81.0055V10.2075L80.8346 10.3442C80.7184 10.4399 80.5338 10.5356 80.274 10.6313C80.0143 10.7271 79.7408 10.7681 79.4537 10.7681C79.0641 10.7681 78.736 10.6313 78.4625 10.3511C78.1891 10.0708 78.0524 9.72217 78.0524 9.29834V7.33643H76.6578V9.29834C76.6578 10.1392 76.9039 10.8022 77.3824 11.2944C77.861 11.7866 78.5104 12.0327 79.317 12.0327C79.9733 12.0327 80.5338 11.8687 80.9987 11.5405L81.0055 14.0562ZM89.2633 7.33643L85.7633 11.7456V7.33643H84.3619V14.0562H85.6198L89.1198 9.64697V14.0562H90.5211V7.33643H89.2633ZM93.8844 11.2534H97.1725V14.0562H98.5739V7.33643H97.1725V9.99561H93.8844V7.33643H92.483V14.0562H93.8844V11.2534ZM105.437 7.33643L101.937 11.7456V7.33643H100.536V14.0562H101.794L105.294 9.64697V14.0562H106.695V7.33643H105.437ZM112.225 10.2759L109.778 7.33643H108.657V14.0562H110.058V9.64697L112.225 12.2378L114.399 9.64697V14.0562H115.8V7.33643H114.679L112.225 10.2759Z" fill="#00C65E"/>
<path fill-rule="evenodd" clip-rule="evenodd" d="M131.482 9.32845L127.789 13.1523C127.534 13.4163 127.12 13.4163 126.865 13.1523C126.61 12.8883 126.61 12.4603 126.865 12.1963L130.097 8.85052L126.865 5.50437C126.61 5.24038 126.61 4.81234 126.865 4.54834C127.12 4.28435 127.533 4.28434 127.788 4.54834L131.467 8.35688C131.473 8.36189 131.477 8.3672 131.482 8.37242C131.705 8.60342 131.733 8.96018 131.566 9.22242C131.542 9.25992 131.514 9.29544 131.482 9.32845Z" fill="#363A45"/>
</svg>
