<svg width="191" height="155" viewBox="0 0 191 155" fill="none" xmlns="http://www.w3.org/2000/svg">
<g filter="url(#filter0_d_1689_37058)">
<circle cx="95.3149" cy="52.2943" r="42.5" transform="rotate(0.819398 95.3149 52.2943)" fill="white"/>
<path d="M78.9751 51.1859L79.2641 51.0465C79.4805 50.9635 79.7266 50.8092 80.0168 50.5838C80.307 50.3584 80.5834 50.0897 80.8751 49.7639C81.1665 49.4524 81.4165 49.0255 81.6247 48.5119C81.833 47.9984 81.9559 47.4262 81.9646 46.8237C81.9877 45.2026 81.376 43.8308 80.1292 42.7225C78.8824 41.6142 77.212 41.0307 75.1462 41.0011C74.2425 40.9882 73.3801 41.0907 72.5591 41.3085C71.7238 41.5261 71.0604 41.7606 70.5546 42.0116C70.0489 42.2626 69.5853 42.5717 69.1498 42.9242C68.7141 43.291 68.4381 43.531 68.3212 43.6728C68.2044 43.8146 68.1169 43.9138 68.0585 43.9847L70.6603 46.662L71.1118 46.195C71.403 45.8978 71.8666 45.5888 72.5312 45.2683C73.1956 44.9621 73.901 44.8 74.647 44.8107C75.5077 44.823 76.193 45.0624 76.6889 45.4999C77.1703 45.9516 77.4205 46.5148 77.4107 47.2033C77.4 47.9493 77.1332 48.5481 76.6245 49C76.1159 49.4519 75.4383 49.6718 74.5776 49.6595L72.5262 49.6301L72.4737 53.3026L74.6829 53.3342C75.7301 53.3491 76.5441 53.619 77.1396 54.1154C77.735 54.6261 78.0272 55.2616 78.0163 56.0219C78.0052 56.7966 77.6806 57.4233 77.0711 57.9024C76.4614 58.3959 75.5829 58.6272 74.4496 58.611C73.8758 58.6028 73.3317 58.5233 72.8031 58.3579C72.2744 58.2069 71.8465 58.0286 71.5051 57.8228C71.1637 57.617 70.8511 57.3973 70.5536 57.1348C70.2417 56.8721 70.0576 56.6973 69.973 56.5956C69.8884 56.494 69.8179 56.4069 69.79 56.3491L67.0963 59.0941L67.3928 59.4284C67.5758 59.6749 67.8875 59.952 68.3134 60.2738C68.7392 60.5955 69.237 60.904 69.8063 61.2278C70.3756 61.5516 71.1177 61.8348 72.0182 62.0773C72.9187 62.3197 73.864 62.4337 74.8395 62.4476C77.1348 62.4805 78.9796 61.9042 80.4029 60.705C81.826 59.52 82.5497 58.0812 82.5739 56.3884C82.5845 55.6425 82.4507 54.9662 82.2015 54.3313C81.938 53.6962 81.6437 53.2041 81.3333 52.841C81.0226 52.4922 80.6541 52.1712 80.242 51.8927C79.8155 51.614 79.5311 51.4378 79.36 51.3636C79.1888 51.2894 79.0605 51.2302 78.9751 51.1859ZM95.9378 48.6449C94.5606 48.6252 93.4812 48.8537 92.6996 49.3303L93.0411 45.5186L101.562 45.6404L101.617 41.8102L89.1365 41.6317L88.2366 53.3845L91.3168 53.7155L91.6384 53.304C91.8572 53.0489 92.2485 52.7819 92.8118 52.5173C93.3607 52.2669 93.9939 52.1325 94.7112 52.1427C95.7297 52.1573 96.5714 52.4993 97.222 53.1543C97.8725 53.8236 98.1909 54.6317 98.1774 55.5785C98.1637 56.5397 97.8513 57.31 97.2115 57.9035C96.5717 58.497 95.7069 58.7716 94.6023 58.7558C93.7415 58.7435 92.9122 58.5451 92.0857 58.1458C91.2733 57.7612 90.7468 57.4523 90.4919 57.2191C90.2513 56.9861 90.0675 56.7969 89.9406 56.6373L87.2612 59.3825L87.5291 59.7164C87.7121 59.9629 88.0095 60.2398 88.421 60.5614C88.8468 60.8831 89.3302 61.1913 89.8852 61.5149C90.4402 61.8385 91.1679 62.1216 92.054 62.3638C92.9402 62.6061 93.8712 62.7198 94.8467 62.7338C97.1706 62.767 99.0595 62.1197 100.514 60.7774C101.968 59.4351 102.695 57.7236 102.725 55.6436C102.753 53.6639 102.131 52.0193 100.83 50.6806C99.5434 49.3565 97.9175 48.6732 95.9378 48.6449ZM110.316 52.2224C110.347 50.0706 110.801 48.4127 111.693 47.2489C112.585 46.085 113.626 45.5117 114.831 45.5289C116.022 45.5459 117.047 46.1489 117.905 47.3377C118.749 48.5263 119.17 50.1968 119.139 52.3486C119.108 54.5004 118.64 56.1581 117.762 57.3222C116.87 58.486 115.829 59.0594 114.638 59.0423C113.433 59.0251 112.409 58.4222 111.55 57.2333C110.692 56.0445 110.286 54.3742 110.316 52.2224ZM123.543 52.4116C123.589 49.1982 122.765 46.6037 121.086 44.614C119.393 42.624 117.327 41.6044 114.888 41.5695C112.435 41.5345 110.341 42.4945 108.591 44.4352C106.842 46.376 105.944 48.9458 105.898 52.1592C105.852 55.3726 106.676 57.9815 108.369 59.9714C110.062 61.9757 112.128 62.9809 114.581 63.016C117.02 63.0509 119.114 62.1052 120.864 60.1501C122.599 58.2092 123.497 55.625 123.543 52.4116Z" fill="#F89358"/>
</g>
<path d="M10.518 118.92H13.3129V125.398H15.7387V118.92H18.5336V116.573H10.518V118.92ZM30.8559 116.573H28.4213V125.398H30.8559V116.573ZM22.392 123.42V121.258H23.8334C24.141 121.258 24.3959 121.364 24.5981 121.566C24.809 121.777 24.9057 122.031 24.9057 122.339C24.9057 122.656 24.809 122.91 24.5981 123.113C24.3959 123.323 24.141 123.42 23.8334 123.42H22.392ZM27.349 122.339C27.349 121.425 27.0414 120.687 26.435 120.124C25.8197 119.562 24.9848 119.281 23.9213 119.281H22.392V116.573H19.9662V125.398H23.9213C24.9936 125.398 25.8285 125.116 26.435 124.554C27.0414 123.991 27.349 123.253 27.349 122.339ZM32.6576 120.986C32.6576 122.216 33.1234 123.288 34.0727 124.202C35.0131 125.116 36.1293 125.573 37.4213 125.573C37.8783 125.573 38.3178 125.512 38.7309 125.38C39.144 125.248 39.4779 125.108 39.7328 124.949C39.9965 124.791 40.2338 124.615 40.4535 124.413C40.682 124.211 40.8227 124.071 40.8842 123.983C40.9457 123.895 40.9897 123.833 41.0248 123.781L39.5834 122.251L39.3461 122.55C39.1879 122.743 38.9242 122.937 38.5639 123.13C38.2035 123.323 37.8256 123.42 37.4213 123.42C36.7885 123.42 36.2436 123.183 35.7777 122.708C35.3207 122.234 35.0834 121.662 35.0834 120.994C35.0834 120.326 35.3207 119.746 35.7777 119.272C36.2348 118.797 36.7885 118.56 37.4213 118.56C37.8256 118.56 38.2035 118.674 38.5639 118.885C38.9242 119.096 39.1615 119.272 39.267 119.404C39.3725 119.544 39.4516 119.65 39.4955 119.729L41.0248 118.199L40.893 118.015C40.8051 117.892 40.6557 117.734 40.4447 117.558C40.2426 117.382 40.0053 117.215 39.7416 117.039C39.4779 116.864 39.144 116.714 38.7309 116.591C38.3178 116.468 37.8783 116.398 37.4213 116.398C36.1293 116.398 35.0131 116.864 34.0639 117.778C33.1234 118.692 32.6576 119.764 32.6576 120.986ZM45.7182 116.573C44.7426 116.573 43.9252 116.89 43.2748 117.505C42.6244 118.129 42.2992 118.867 42.2992 119.729C42.2992 120.098 42.352 120.449 42.4662 120.775C42.5805 121.1 42.7123 121.355 42.8529 121.539C42.9936 121.724 43.1606 121.891 43.3451 122.049C43.5297 122.207 43.6615 122.304 43.7318 122.339C43.8022 122.374 43.8637 122.409 43.9076 122.427L42.018 125.398H44.6283L46.2455 122.787H47.5111V125.398H49.9369V116.573H45.7182ZM47.5111 118.648V120.81H45.894C45.5336 120.81 45.2436 120.713 45.0326 120.511C44.8217 120.318 44.7162 120.054 44.7162 119.729C44.7162 119.412 44.8305 119.149 45.0414 118.947C45.2523 118.753 45.5424 118.648 45.894 118.648H47.5111ZM57.5131 125.398H59.9389V116.573H57.5131V120.265L57.3461 120.397C57.2406 120.493 57.0561 120.59 56.8012 120.678C56.5375 120.766 56.265 120.81 55.9838 120.81C55.5707 120.81 55.2279 120.669 54.9555 120.379C54.6742 120.098 54.5424 119.729 54.5424 119.281V116.573H52.1078V119.456C52.1078 120.581 52.4066 121.46 53.0131 122.102C53.6195 122.743 54.4281 123.06 55.4389 123.06C56.2211 123.06 56.9154 122.849 57.5131 122.427V125.398ZM65.9682 116.573V125.398H70.5561C71.5141 125.398 72.2787 125.152 72.85 124.651C73.4213 124.158 73.7113 123.534 73.7113 122.787C73.7113 122.506 73.6586 122.242 73.5531 121.996C73.4477 121.759 73.3334 121.574 73.2104 121.434C73.0873 121.293 72.9379 121.17 72.7709 121.065C72.5951 120.959 72.4809 120.889 72.4193 120.863C72.349 120.845 72.3051 120.827 72.2699 120.81L72.5336 120.643C72.7094 120.555 72.894 120.353 73.0785 120.054C73.2543 119.755 73.351 119.412 73.351 119.008C73.351 118.349 73.0697 117.778 72.5248 117.294C71.9711 116.82 71.2592 116.573 70.3803 116.573H65.9682ZM70.3803 121.618C70.6527 121.618 70.8725 121.706 71.0307 121.873C71.1889 122.04 71.2768 122.251 71.2768 122.515C71.2768 122.779 71.1889 122.998 71.0307 123.165C70.8725 123.341 70.6527 123.42 70.3803 123.42H68.394V121.618H70.3803ZM70.9164 119.281C70.9164 119.764 70.6703 120.001 70.1957 120.001H68.394V118.56H70.1957C70.6703 118.56 70.9164 118.806 70.9164 119.281ZM86.4027 116.573H83.9682V125.398H86.4027V116.573ZM77.9389 123.42V121.258H79.3803C79.6879 121.258 79.9428 121.364 80.1449 121.566C80.3559 121.777 80.4525 122.031 80.4525 122.339C80.4525 122.656 80.3559 122.91 80.1449 123.113C79.9428 123.323 79.6879 123.42 79.3803 123.42H77.9389ZM82.8959 122.339C82.8959 121.425 82.5883 120.687 81.9818 120.124C81.3666 119.562 80.5316 119.281 79.4682 119.281H77.9389V116.573H75.5131V125.398H79.4682C80.5404 125.398 81.3754 125.116 81.9818 124.554C82.5883 123.991 82.8959 123.253 82.8959 122.339ZM91.1752 118.736H94.5941V125.398H97.0287V116.573H88.7494V125.398H91.1752V118.736ZM100.263 116.573V119.008C100.263 120.239 100.193 121.17 100.07 121.812C99.9467 122.453 99.7797 122.866 99.5775 123.051C99.3666 123.236 99.0854 123.323 98.7338 123.323C98.558 123.323 98.3734 123.297 98.1977 123.236V125.398L98.3559 125.468C98.4525 125.503 98.602 125.547 98.8129 125.6C99.0238 125.653 99.2348 125.67 99.4545 125.67C100.122 125.67 100.676 125.503 101.116 125.169C101.555 124.835 101.907 124.176 102.188 123.209C102.469 122.242 102.61 120.933 102.61 119.289V118.744H104.948V125.406H107.373V116.582L100.263 116.573ZM114.58 125.398H117.006V119.905C117.006 118.903 116.655 118.068 115.952 117.4C115.248 116.732 114.334 116.398 113.227 116.398C112.796 116.398 112.374 116.468 111.961 116.591C111.557 116.714 111.223 116.855 110.968 117.004C110.722 117.154 110.485 117.321 110.274 117.514C110.063 117.707 109.922 117.848 109.861 117.927C109.799 118.006 109.746 118.068 109.711 118.112L111.056 119.456L111.258 119.245C111.399 119.087 111.627 118.938 111.953 118.788C112.287 118.639 112.647 118.56 113.042 118.56C113.526 118.56 113.904 118.683 114.167 118.911C114.44 119.149 114.572 119.448 114.572 119.817L111.777 120.318C110.968 120.467 110.327 120.783 109.861 121.258C109.404 121.741 109.166 122.339 109.166 123.06C109.166 123.763 109.448 124.352 109.993 124.844C110.546 125.336 111.258 125.573 112.137 125.573C112.594 125.573 113.034 125.477 113.455 125.283C113.877 125.09 114.159 124.932 114.282 124.809C114.405 124.686 114.501 124.589 114.572 124.501L114.58 125.398ZM112.77 123.596C111.996 123.596 111.601 123.297 111.601 122.699C111.601 122.146 111.935 121.812 112.594 121.706L114.572 121.346V121.618C114.572 122.242 114.413 122.726 114.088 123.077C113.763 123.429 113.324 123.596 112.77 123.596ZM124.574 125.398H126.999V116.573H124.574V120.265L124.407 120.397C124.301 120.493 124.117 120.59 123.862 120.678C123.598 120.766 123.326 120.81 123.044 120.81C122.631 120.81 122.288 120.669 122.016 120.379C121.735 120.098 121.603 119.729 121.603 119.281V116.573H119.168V119.456C119.168 120.581 119.467 121.46 120.074 122.102C120.68 122.743 121.489 123.06 122.499 123.06C123.282 123.06 123.976 122.849 124.574 122.427V125.398ZM135.586 116.573L131.763 121.531V116.573H129.337V125.398H131.438L135.279 120.449V125.398H137.704V116.573H135.586ZM140.042 116.573V125.398H144.63C145.588 125.398 146.353 125.152 146.924 124.651C147.496 124.158 147.786 123.534 147.786 122.787C147.786 122.506 147.733 122.242 147.627 121.996C147.522 121.759 147.408 121.574 147.285 121.434C147.162 121.293 147.012 121.17 146.845 121.065C146.669 120.959 146.555 120.889 146.494 120.863C146.423 120.845 146.379 120.827 146.344 120.81L146.608 120.643C146.784 120.555 146.968 120.353 147.153 120.054C147.329 119.755 147.425 119.412 147.425 119.008C147.425 118.349 147.144 117.778 146.599 117.294C146.045 116.82 145.333 116.573 144.454 116.573H140.042ZM144.454 121.618C144.727 121.618 144.947 121.706 145.105 121.873C145.263 122.04 145.351 122.251 145.351 122.515C145.351 122.779 145.263 122.998 145.105 123.165C144.947 123.341 144.727 123.42 144.454 123.42H142.468V121.618H144.454ZM144.991 119.281C144.991 119.764 144.745 120.001 144.27 120.001H142.468V118.56H144.27C144.745 118.56 144.991 118.806 144.991 119.281ZM154.448 125.398H156.873V119.905C156.873 118.903 156.522 118.068 155.819 117.4C155.116 116.732 154.202 116.398 153.094 116.398C152.663 116.398 152.242 116.468 151.829 116.591C151.424 116.714 151.09 116.855 150.835 117.004C150.589 117.154 150.352 117.321 150.141 117.514C149.93 117.707 149.789 117.848 149.728 117.927C149.666 118.006 149.614 118.068 149.579 118.112L150.923 119.456L151.125 119.245C151.266 119.087 151.495 118.938 151.82 118.788C152.154 118.639 152.514 118.56 152.91 118.56C153.393 118.56 153.771 118.683 154.035 118.911C154.307 119.149 154.439 119.448 154.439 119.817L151.644 120.318C150.835 120.467 150.194 120.783 149.728 121.258C149.271 121.741 149.034 122.339 149.034 123.06C149.034 123.763 149.315 124.352 149.86 124.844C150.413 125.336 151.125 125.573 152.004 125.573C152.461 125.573 152.901 125.477 153.323 125.283C153.745 125.09 154.026 124.932 154.149 124.809C154.272 124.686 154.369 124.589 154.439 124.501L154.448 125.398ZM152.637 123.596C151.864 123.596 151.468 123.297 151.468 122.699C151.468 122.146 151.802 121.812 152.461 121.706L154.439 121.346V121.618C154.439 122.242 154.281 122.726 153.955 123.077C153.63 123.429 153.191 123.596 152.637 123.596ZM167.587 121.794L167.675 120.81C167.675 119.553 167.253 118.507 166.418 117.663C165.575 116.82 164.529 116.398 163.272 116.398C162.006 116.398 160.925 116.855 160.029 117.751C159.123 118.648 158.675 119.729 158.675 120.986C158.675 122.251 159.132 123.332 160.046 124.229C160.96 125.125 162.059 125.573 163.36 125.573C163.817 125.573 164.256 125.521 164.687 125.415C165.118 125.31 165.469 125.196 165.742 125.055C166.005 124.914 166.26 124.756 166.506 124.58C166.744 124.405 166.902 124.281 166.972 124.211L167.139 124.044L165.882 122.427L165.627 122.699C165.469 122.884 165.188 123.069 164.801 123.244C164.414 123.42 163.993 123.508 163.536 123.508C162.903 123.508 162.375 123.35 161.962 123.016C161.54 122.682 161.286 122.278 161.198 121.794H167.587ZM163.272 118.472C163.782 118.472 164.221 118.63 164.573 118.929C164.924 119.237 165.153 119.623 165.249 120.089H161.198C161.338 119.615 161.593 119.219 161.954 118.92C162.314 118.621 162.753 118.472 163.272 118.472ZM174.258 123.236L176.596 120.177V125.398H179.022V116.573H176.956L174.258 120.089L171.551 116.573H169.486V125.398H171.912V120.177L174.258 123.236ZM22.1283 143.573H19.3422L16.1869 147.177V143.573H13.7611V152.398H16.1869V150.236L17.268 148.979L19.6059 152.398H22.3129L18.7973 147.362L22.1283 143.573ZM24.3783 143.573V146.008C24.3783 147.239 24.308 148.17 24.185 148.812C24.0619 149.453 23.8949 149.866 23.6928 150.051C23.4818 150.236 23.2006 150.323 22.849 150.323C22.6732 150.323 22.4887 150.297 22.3129 150.236V152.398L22.4711 152.468C22.5678 152.503 22.7172 152.547 22.9281 152.6C23.1391 152.653 23.35 152.67 23.5697 152.67C24.2377 152.67 24.7914 152.503 25.2309 152.169C25.6703 151.835 26.0219 151.176 26.3031 150.209C26.5844 149.242 26.725 147.933 26.725 146.289V145.744H29.0629V152.406H31.4887V143.582L24.3783 143.573ZM40.0844 143.573L36.2611 148.531V143.573H33.8354V152.398H35.9359L39.7768 147.449V152.398H42.2025V143.573H40.0844ZM52.9076 148.794L52.9955 147.81C52.9955 146.553 52.5736 145.507 51.7387 144.663C50.8949 143.82 49.849 143.398 48.5922 143.398C47.3266 143.398 46.2455 143.855 45.349 144.751C44.4438 145.648 43.9955 146.729 43.9955 147.986C43.9955 149.251 44.4525 150.332 45.3666 151.229C46.2807 152.125 47.3793 152.573 48.6801 152.573C49.1371 152.573 49.5766 152.521 50.0072 152.415C50.4379 152.31 50.7895 152.196 51.0619 152.055C51.3256 151.914 51.5805 151.756 51.8266 151.58C52.0639 151.405 52.2221 151.281 52.2924 151.211L52.4594 151.044L51.2025 149.427L50.9477 149.699C50.7895 149.884 50.5082 150.069 50.1215 150.244C49.7348 150.42 49.3129 150.508 48.8559 150.508C48.2231 150.508 47.6957 150.35 47.2826 150.016C46.8607 149.682 46.6059 149.278 46.518 148.794H52.9076ZM48.5922 145.472C49.102 145.472 49.5414 145.63 49.893 145.929C50.2445 146.237 50.4731 146.623 50.5697 147.089H46.518C46.6586 146.615 46.9135 146.219 47.2738 145.92C47.6342 145.621 48.0736 145.472 48.5922 145.472ZM57.2318 149.067H60.6508V152.398H63.0854V143.573H60.6508V146.905H57.2318V143.573H54.8061V152.398H57.2318V149.067ZM64.518 145.92H67.3129V152.398H69.7387V145.92H72.5336V143.573H64.518V145.92ZM78.8266 152.398H81.2523V146.905C81.2523 145.903 80.9008 145.068 80.1977 144.4C79.4945 143.732 78.5805 143.398 77.4731 143.398C77.0424 143.398 76.6205 143.468 76.2074 143.591C75.8031 143.714 75.4691 143.855 75.2143 144.004C74.9682 144.154 74.7309 144.321 74.5199 144.514C74.309 144.707 74.1684 144.848 74.1068 144.927C74.0453 145.006 73.9926 145.068 73.9574 145.112L75.3022 146.456L75.5043 146.245C75.6449 146.087 75.8734 145.938 76.1986 145.788C76.5326 145.639 76.893 145.56 77.2885 145.56C77.7719 145.56 78.1498 145.683 78.4135 145.911C78.6859 146.149 78.8178 146.448 78.8178 146.817L76.0229 147.318C75.2143 147.467 74.5727 147.783 74.1068 148.258C73.6498 148.741 73.4125 149.339 73.4125 150.06C73.4125 150.763 73.6938 151.352 74.2387 151.844C74.7924 152.336 75.5043 152.573 76.3832 152.573C76.8402 152.573 77.2797 152.477 77.7016 152.283C78.1234 152.09 78.4047 151.932 78.5277 151.809C78.6508 151.686 78.7475 151.589 78.8178 151.501L78.8266 152.398ZM77.016 150.596C76.2426 150.596 75.8471 150.297 75.8471 149.699C75.8471 149.146 76.1811 148.812 76.8402 148.706L78.8178 148.346V148.618C78.8178 149.242 78.6596 149.726 78.3344 150.077C78.0092 150.429 77.5697 150.596 77.016 150.596ZM88.3715 150.236L90.7094 147.177V152.398H93.1352V143.573H91.0697L88.3715 147.089L85.6645 143.573H83.599V152.398H86.0248V147.177L88.3715 150.236ZM99.1732 143.573V152.398H103.761C104.719 152.398 105.484 152.152 106.055 151.651C106.626 151.158 106.916 150.534 106.916 149.787C106.916 149.506 106.864 149.242 106.758 148.996C106.653 148.759 106.538 148.574 106.415 148.434C106.292 148.293 106.143 148.17 105.976 148.065C105.8 147.959 105.686 147.889 105.624 147.863C105.554 147.845 105.51 147.827 105.475 147.81L105.739 147.643C105.914 147.555 106.099 147.353 106.284 147.054C106.459 146.755 106.556 146.412 106.556 146.008C106.556 145.349 106.275 144.778 105.73 144.294C105.176 143.82 104.464 143.573 103.585 143.573H99.1732ZM103.585 148.618C103.858 148.618 104.078 148.706 104.236 148.873C104.394 149.04 104.482 149.251 104.482 149.515C104.482 149.779 104.394 149.998 104.236 150.165C104.078 150.341 103.858 150.42 103.585 150.42H101.599V148.618H103.585ZM104.121 146.281C104.121 146.764 103.875 147.001 103.401 147.001H101.599V145.56H103.401C103.875 145.56 104.121 145.806 104.121 146.281ZM114.835 149.067H118.254V152.398H120.689V143.573H118.254V146.905H114.835V143.573H112.41V152.398H114.835V149.067ZM131.394 148.794L131.482 147.81C131.482 146.553 131.06 145.507 130.225 144.663C129.381 143.82 128.335 143.398 127.079 143.398C125.813 143.398 124.732 143.855 123.835 144.751C122.93 145.648 122.482 146.729 122.482 147.986C122.482 149.251 122.939 150.332 123.853 151.229C124.767 152.125 125.866 152.573 127.166 152.573C127.623 152.573 128.063 152.521 128.494 152.415C128.924 152.31 129.276 152.196 129.548 152.055C129.812 151.914 130.067 151.756 130.313 151.58C130.55 151.405 130.708 151.281 130.779 151.211L130.946 151.044L129.689 149.427L129.434 149.699C129.276 149.884 128.995 150.069 128.608 150.244C128.221 150.42 127.799 150.508 127.342 150.508C126.709 150.508 126.182 150.35 125.769 150.016C125.347 149.682 125.092 149.278 125.004 148.794H131.394ZM127.079 145.472C127.588 145.472 128.028 145.63 128.379 145.929C128.731 146.237 128.959 146.623 129.056 147.089H125.004C125.145 146.615 125.4 146.219 125.76 145.92C126.121 145.621 126.56 145.472 127.079 145.472ZM132.123 150.236V154.472H134.549V152.398H139.594V154.472H142.02V150.236H140.851V143.573H134.101V146.008C134.101 146.562 134.048 147.089 133.943 147.59C133.837 148.082 133.723 148.487 133.6 148.785C133.477 149.084 133.328 149.365 133.161 149.62C132.994 149.866 132.879 150.025 132.809 150.095C132.739 150.156 132.695 150.209 132.66 150.244L132.123 150.236ZM136.351 145.744H138.425V150.244H135.182L135.49 149.779C135.683 149.462 135.868 148.979 136.061 148.32C136.254 147.66 136.351 146.984 136.351 146.289V145.744ZM152.013 148.794L152.101 147.81C152.101 146.553 151.679 145.507 150.844 144.663C150 143.82 148.954 143.398 147.698 143.398C146.432 143.398 145.351 143.855 144.454 144.751C143.549 145.648 143.101 146.729 143.101 147.986C143.101 149.251 143.558 150.332 144.472 151.229C145.386 152.125 146.485 152.573 147.786 152.573C148.243 152.573 148.682 152.521 149.113 152.415C149.543 152.31 149.895 152.196 150.167 152.055C150.431 151.914 150.686 151.756 150.932 151.58C151.169 151.405 151.328 151.281 151.398 151.211L151.565 151.044L150.308 149.427L150.053 149.699C149.895 149.884 149.614 150.069 149.227 150.244C148.84 150.42 148.418 150.508 147.961 150.508C147.329 150.508 146.801 150.35 146.388 150.016C145.966 149.682 145.711 149.278 145.623 148.794H152.013ZM147.698 145.472C148.207 145.472 148.647 145.63 148.998 145.929C149.35 146.237 149.579 146.623 149.675 147.089H145.623C145.764 146.615 146.019 146.219 146.379 145.92C146.74 145.621 147.179 145.472 147.698 145.472ZM154.808 143.573V146.008C154.808 147.239 154.738 148.17 154.615 148.812C154.492 149.453 154.325 149.866 154.122 150.051C153.912 150.236 153.63 150.323 153.279 150.323C153.103 150.323 152.918 150.297 152.743 150.236V152.398L152.901 152.468C152.997 152.503 153.147 152.547 153.358 152.6C153.569 152.653 153.78 152.67 153.999 152.67C154.667 152.67 155.221 152.503 155.661 152.169C156.1 151.835 156.452 151.176 156.733 150.209C157.014 149.242 157.155 147.933 157.155 146.289V145.744H159.493V152.406H161.918V143.582L154.808 143.573ZM177.132 147.986C177.132 146.729 176.675 145.648 175.779 144.751C174.882 143.855 173.801 143.406 172.544 143.406C171.419 143.406 170.444 143.758 169.6 144.47C168.756 145.182 168.238 145.999 168.044 146.913H166.691V143.582H164.265V152.406H166.691V149.075H168.044C168.238 149.99 168.756 150.798 169.6 151.51C170.444 152.222 171.428 152.582 172.544 152.582C173.801 152.582 174.882 152.125 175.779 151.229C176.675 150.332 177.132 149.251 177.132 147.986ZM174.706 147.994C174.706 148.698 174.496 149.286 174.074 149.743C173.652 150.2 173.142 150.429 172.544 150.429C171.947 150.429 171.437 150.2 171.015 149.743C170.593 149.286 170.382 148.698 170.382 147.994C170.382 147.282 170.593 146.702 171.015 146.245C171.437 145.788 171.947 145.569 172.544 145.569C173.142 145.569 173.652 145.788 174.074 146.245C174.496 146.702 174.706 147.282 174.706 147.994Z" fill="#F89358"/>
<defs>
<filter id="filter0_d_1689_37058" x="41.193" y="-0.60334" width="115.589" height="115.589" filterUnits="userSpaceOnUse" color-interpolation-filters="sRGB">
<feFlood flood-opacity="0" result="BackgroundImageFix"/>
<feColorMatrix in="SourceAlpha" type="matrix" values="0 0 0 0 0 0 0 0 0 0 0 0 0 0 0 0 0 0 127 0" result="hardAlpha"/>
<feOffset dx="3.67282" dy="4.89709"/>
<feGaussianBlur stdDeviation="7.34564"/>
<feColorMatrix type="matrix" values="0 0 0 0 0.211765 0 0 0 0 0.227451 0 0 0 0 0.270588 0 0 0 0.26 0"/>
<feBlend mode="normal" in2="BackgroundImageFix" result="effect1_dropShadow_1689_37058"/>
<feBlend mode="normal" in="SourceGraphic" in2="effect1_dropShadow_1689_37058" result="shape"/>
</filter>
</defs>
</svg>
