<svg width="170" height="17" viewBox="0 0 170 17" fill="none" xmlns="http://www.w3.org/2000/svg">
<path d="M1.72266 7.20801C1.72265 7.01485 1.56621 6.85859 1.37305 6.8584C1.15409 6.8581 0.940647 6.78749 0.764648 6.65723C0.588617 6.5269 0.458736 6.3432 0.394531 6.13379C0.330381 5.92439 0.335448 5.69973 0.408203 5.49316C0.480908 5.28681 0.61786 5.10927 0.798828 4.98633L7.38672 0.53125L7.39062 0.52832C7.5581 0.4122 7.75714 0.349609 7.96094 0.349609C8.16476 0.349626 8.36378 0.412166 8.53125 0.52832L8.53516 0.53125L15.123 4.98633C15.3046 5.10969 15.4421 5.28793 15.5146 5.49512C15.5872 5.7025 15.5906 5.9279 15.5254 6.1377C15.46 6.3476 15.3289 6.5315 15.1514 6.66113C14.9738 6.79072 14.7589 6.86008 14.5391 6.8584C14.4459 6.85779 14.3562 6.89434 14.29 6.95996C14.224 7.02564 14.1865 7.11486 14.1865 7.20801V16.3311C14.1865 16.4111 14.1552 16.4883 14.0986 16.5449C14.0421 16.6015 13.9648 16.6328 13.8848 16.6328H2.03613C1.95409 16.6327 1.87495 16.6005 1.81641 16.543C1.77262 16.4998 1.74328 16.445 1.73047 16.3857L1.72266 16.3252V7.20801Z" stroke="#363A45" stroke-width="0.7" stroke-linecap="round" stroke-linejoin="round"/>
<path d="M11.4609 8.6416C11.4609 11.3379 7.96094 14.8916 7.96094 14.8916C7.96094 14.8916 4.46094 11.3379 4.46094 8.6416C4.46094 7.64704 4.82969 6.69321 5.48606 5.98995C6.14244 5.28669 7.03268 4.8916 7.96094 4.8916C8.88919 4.8916 9.77943 5.28669 10.4358 5.98995C11.0922 6.69321 11.4609 7.64704 11.4609 8.6416Z" fill="#00C65E"/>
<ellipse cx="7.96094" cy="8.70662" rx="1.87" ry="1.97883" fill="white"/>
<path d="M26.202 14H27.8085L28.8612 11.4092H33.202L34.2548 14H35.8612L31.8007 4.19727H30.2626L26.202 14ZM31.035 5.94727L32.6415 10.0078H29.4218L31.035 5.94727ZM36.08 12.7422V15.6816H37.4813V14H42.1708V15.6816H43.5653V12.7422H42.5878V7.28027H37.6864V9.24219C37.6864 9.69336 37.6454 10.1172 37.5634 10.5205C37.4813 10.9307 37.3925 11.2588 37.2968 11.5049C37.201 11.751 37.0848 11.9834 36.955 12.1953C36.8251 12.4141 36.7362 12.5508 36.6815 12.6123C36.6268 12.6738 36.5927 12.7148 36.5653 12.7422H36.08ZM39.0878 8.53809H41.1864V12.7422H37.9667L38.0829 12.5986C38.1512 12.5166 38.2469 12.3799 38.3563 12.1885C38.4657 11.9971 38.5819 11.7715 38.6913 11.5117C38.8007 11.252 38.8964 10.917 38.9716 10.5137C39.0468 10.1172 39.0809 9.69336 39.0809 9.24219L39.0878 8.53809ZM48.5419 14.1367C49.4305 14.1367 50.1962 13.8018 50.8524 13.1182C51.5087 12.4346 51.8368 11.6074 51.8368 10.6367C51.8368 9.66602 51.5087 8.8457 50.8524 8.16211C50.1962 7.47852 49.4305 7.13672 48.5419 7.13672C48.1454 7.13672 47.7626 7.22559 47.3866 7.38965C47.0038 7.56055 46.7577 7.69727 46.6415 7.7998C46.5253 7.90918 46.4364 7.99121 46.3749 8.05273V7.28027H44.9735V16.9395H46.3749V13.2275L46.4706 13.3301C46.5253 13.3848 46.621 13.46 46.7509 13.5557C46.8807 13.6514 47.0311 13.7402 47.202 13.8291C47.3661 13.918 47.5712 13.9932 47.8104 14.0479C48.0428 14.1094 48.2889 14.1367 48.5419 14.1367ZM48.4052 8.40137C48.9384 8.40137 49.41 8.62012 49.8202 9.05762C50.2303 9.49512 50.4354 10.0283 50.4354 10.6436C50.4354 11.2588 50.2303 11.7852 49.8202 12.2227C49.41 12.6602 48.9384 12.8789 48.4052 12.8789C47.8719 12.8789 47.4003 12.6602 46.9901 12.2227C46.58 11.7852 46.3749 11.2588 46.3749 10.6436C46.3749 10.0283 46.58 9.49512 46.9901 9.05762C47.4003 8.62012 47.8719 8.40137 48.4052 8.40137ZM59.5956 11.1289L59.6708 10.4316C59.6708 9.48828 59.3563 8.70898 58.7274 8.08008C58.0985 7.45117 57.3192 7.13672 56.3759 7.13672C55.4325 7.13672 54.6259 7.47852 53.9559 8.14844C53.286 8.81836 52.9442 9.625 52.9442 10.5684C52.9442 11.5527 53.2928 12.3936 53.9833 13.0908C54.6737 13.7881 55.494 14.1367 56.4442 14.1367C56.7997 14.1367 57.1483 14.0889 57.4833 13.9863C57.8182 13.8838 58.0917 13.7744 58.2968 13.6514C58.5087 13.5283 58.7069 13.3916 58.8915 13.2344C59.0829 13.0771 59.2059 12.9678 59.2606 12.8994C59.3153 12.8311 59.3563 12.7832 59.3837 12.7422L58.4745 11.833L58.2626 12.0928C58.1259 12.2637 57.8866 12.4346 57.5448 12.6123C57.203 12.79 56.8407 12.8789 56.4442 12.8789C55.9042 12.8789 55.4393 12.708 55.0428 12.3594C54.6464 12.0176 54.4139 11.6074 54.3387 11.1289H59.5956ZM56.369 8.33301C56.8885 8.33301 57.3124 8.4834 57.6542 8.78418C57.996 9.08496 58.2079 9.46777 58.2899 9.93945H54.4003C54.5233 9.46777 54.7557 9.08496 55.0975 8.78418C55.4393 8.4834 55.8632 8.33301 56.369 8.33301ZM60.785 10.6436C60.785 11.5869 61.1268 12.4004 61.8241 13.0977C62.5214 13.7949 63.3417 14.1436 64.285 14.1436C64.6063 14.1436 64.9276 14.0889 65.2489 13.9863C65.5634 13.8838 65.8231 13.7744 66.0282 13.6514C66.2264 13.5283 66.4178 13.3916 66.6024 13.2344C66.7802 13.0771 66.9032 12.9678 66.9579 12.8994C67.0126 12.8311 67.0536 12.7832 67.0809 12.749L66.1718 11.8398L65.9598 12.0996C65.8231 12.2637 65.5975 12.4414 65.2831 12.6191C64.9686 12.7969 64.6405 12.8857 64.285 12.8857C63.7108 12.8857 63.2186 12.667 62.8016 12.2363C62.3846 11.7988 62.1796 11.2725 62.1796 10.6436C62.1796 10.0146 62.3846 9.48828 62.8016 9.05762C63.2186 8.62012 63.7108 8.4082 64.285 8.4082C64.6405 8.4082 64.9686 8.49707 65.2831 8.68164C65.5975 8.85938 65.7958 9.00293 65.8915 9.1123C65.9872 9.22168 66.0555 9.31055 66.1034 9.38574L67.0126 8.47656L66.7186 8.15527C66.5204 7.92969 66.1991 7.7041 65.7479 7.47852C65.2968 7.25293 64.8046 7.14355 64.285 7.14355C63.3417 7.14355 62.5214 7.49219 61.8241 8.18945C61.1268 8.88672 60.785 9.7002 60.785 10.6436ZM73.869 14V9.65918C73.869 8.94824 73.6024 8.35352 73.0829 7.86816C72.5565 7.38281 71.8866 7.13672 71.0663 7.13672C70.7382 7.13672 70.4169 7.18457 70.1093 7.27344C69.8016 7.3623 69.5555 7.46484 69.371 7.57422C69.1796 7.69043 69.0018 7.82031 68.8378 7.96387C68.6737 8.10742 68.5643 8.20996 68.5165 8.26465C68.4686 8.31934 68.4344 8.36719 68.4071 8.40137L69.3163 9.31055L69.5009 9.07129C69.6102 8.9209 69.8085 8.77734 70.0956 8.62695C70.3827 8.47656 70.7108 8.40137 71.0663 8.40137C71.4764 8.40137 71.8114 8.52441 72.0712 8.76367C72.3309 9.00977 72.4677 9.30371 72.4677 9.65918L70.0135 10.083C69.4052 10.1855 68.9266 10.4248 68.578 10.7939C68.2294 11.1699 68.0585 11.6348 68.0585 12.1885C68.0585 12.6943 68.2841 13.1523 68.7352 13.5488C69.1864 13.9453 69.7538 14.1436 70.4374 14.1436C70.6698 14.1436 70.8954 14.1094 71.1278 14.0547C71.3534 13.9932 71.5448 13.9248 71.6952 13.8496C71.8456 13.7744 71.9823 13.6924 72.1122 13.5967C72.2421 13.501 72.3309 13.4395 72.3719 13.3984C72.413 13.3574 72.4471 13.3232 72.4677 13.3096V14.0068L73.869 14ZM70.6493 12.8857C70.2802 12.8857 69.993 12.7969 69.7743 12.6328C69.5555 12.4619 69.453 12.2637 69.453 12.0381C69.453 11.7988 69.5282 11.6006 69.6854 11.4434C69.8358 11.2793 70.0409 11.1768 70.2938 11.1357L72.4677 10.7871V10.9238C72.4677 11.5527 72.3036 12.0312 71.9823 12.373C71.661 12.7148 71.2167 12.8857 70.6493 12.8857ZM78.2167 10.6436C78.2167 11.5869 78.5585 12.4004 79.2557 13.0977C79.953 13.7949 80.7733 14.1436 81.7167 14.1436C82.038 14.1436 82.3593 14.0889 82.6805 13.9863C82.995 13.8838 83.2548 13.7744 83.4598 13.6514C83.6581 13.5283 83.8495 13.3916 84.0341 13.2344C84.2118 13.0771 84.3348 12.9678 84.3895 12.8994C84.4442 12.8311 84.4852 12.7832 84.5126 12.749L83.6034 11.8398L83.3915 12.0996C83.2548 12.2637 83.0292 12.4414 82.7147 12.6191C82.4003 12.7969 82.0721 12.8857 81.7167 12.8857C81.1425 12.8857 80.6503 12.667 80.2333 12.2363C79.8163 11.7988 79.6112 11.2725 79.6112 10.6436C79.6112 10.0146 79.8163 9.48828 80.2333 9.05762C80.6503 8.62012 81.1425 8.4082 81.7167 8.4082C82.0721 8.4082 82.4003 8.49707 82.7147 8.68164C83.0292 8.85938 83.2274 9.00293 83.3231 9.1123C83.4188 9.22168 83.4872 9.31055 83.535 9.38574L84.4442 8.47656L84.1503 8.15527C83.952 7.92969 83.6307 7.7041 83.1796 7.47852C82.7284 7.25293 82.2362 7.14355 81.7167 7.14355C80.7733 7.14355 79.953 7.49219 79.2557 8.18945C78.5585 8.88672 78.2167 9.7002 78.2167 10.6436ZM92.1346 11.1289L92.2098 10.4316C92.2098 9.48828 91.8954 8.70898 91.2665 8.08008C90.6376 7.45117 89.8583 7.13672 88.9149 7.13672C87.9716 7.13672 87.1649 7.47852 86.495 8.14844C85.8251 8.81836 85.4833 9.625 85.4833 10.5684C85.4833 11.5527 85.8319 12.3936 86.5223 13.0908C87.2128 13.7881 88.0331 14.1367 88.9833 14.1367C89.3387 14.1367 89.6874 14.0889 90.0223 13.9863C90.3573 13.8838 90.6307 13.7744 90.8358 13.6514C91.0477 13.5283 91.246 13.3916 91.4305 13.2344C91.6219 13.0771 91.745 12.9678 91.7997 12.8994C91.8544 12.8311 91.8954 12.7832 91.9227 12.7422L91.0135 11.833L90.8016 12.0928C90.6649 12.2637 90.4257 12.4346 90.0839 12.6123C89.7421 12.79 89.3798 12.8789 88.9833 12.8789C88.4432 12.8789 87.9784 12.708 87.5819 12.3594C87.1854 12.0176 86.953 11.6074 86.8778 11.1289H92.1346ZM88.9081 8.33301C89.4276 8.33301 89.8514 8.4834 90.1932 8.78418C90.535 9.08496 90.7469 9.46777 90.829 9.93945H86.9393C87.0624 9.46777 87.2948 9.08496 87.6366 8.78418C87.9784 8.4834 88.4022 8.33301 88.9081 8.33301ZM97.3094 14.1367C98.1981 14.1367 98.9637 13.8018 99.62 13.1182C100.276 12.4346 100.604 11.6074 100.604 10.6367C100.604 9.66602 100.276 8.8457 99.62 8.16211C98.9637 7.47852 98.1981 7.13672 97.3094 7.13672C96.913 7.13672 96.5302 7.22559 96.1542 7.38965C95.7714 7.56055 95.5253 7.69727 95.4091 7.7998C95.2928 7.90918 95.204 7.99121 95.1425 8.05273V7.28027H93.7411V16.9395H95.1425V13.2275L95.2382 13.3301C95.2928 13.3848 95.3885 13.46 95.5184 13.5557C95.6483 13.6514 95.7987 13.7402 95.9696 13.8291C96.1337 13.918 96.3387 13.9932 96.578 14.0479C96.8104 14.1094 97.0565 14.1367 97.3094 14.1367ZM97.1727 8.40137C97.7059 8.40137 98.1776 8.62012 98.5878 9.05762C98.9979 9.49512 99.203 10.0283 99.203 10.6436C99.203 11.2588 98.9979 11.7852 98.5878 12.2227C98.1776 12.6602 97.7059 12.8789 97.1727 12.8789C96.6395 12.8789 96.1678 12.6602 95.7577 12.2227C95.3475 11.7852 95.1425 11.2588 95.1425 10.6436C95.1425 10.0283 95.3475 9.49512 95.7577 9.05762C96.1678 8.62012 96.6395 8.40137 97.1727 8.40137ZM102.136 7.28027V14H105.499C106.21 14 106.777 13.8223 107.187 13.4531C107.598 13.0908 107.809 12.6191 107.809 12.0381C107.809 11.8193 107.768 11.6074 107.686 11.416C107.604 11.2246 107.516 11.0742 107.42 10.9648C107.324 10.8555 107.208 10.7529 107.078 10.6572C106.941 10.5615 106.852 10.5068 106.805 10.4795C106.75 10.459 106.716 10.4453 106.688 10.4385L106.88 10.3086C107.01 10.2129 107.14 10.0488 107.263 9.81641C107.386 9.58398 107.454 9.32422 107.454 9.03711C107.454 8.53125 107.263 8.10742 106.887 7.7793C106.504 7.45117 105.998 7.28711 105.355 7.28711L102.136 7.28027ZM105.499 10.999C105.766 10.999 105.984 11.0879 106.155 11.2656C106.319 11.4434 106.408 11.6553 106.408 11.9082C106.408 12.1816 106.326 12.4072 106.162 12.5713C105.998 12.7354 105.772 12.8174 105.499 12.8174H103.537V10.999H105.499ZM106.059 9.17383C106.059 9.39258 105.991 9.56348 105.868 9.68652C105.738 9.80957 105.567 9.87793 105.355 9.87793H103.537V8.47656H105.355C105.567 8.47656 105.738 8.53809 105.868 8.66113C105.991 8.78418 106.059 8.95508 106.059 9.17383ZM114.242 7.28027L110.742 11.6895V7.28027H109.341V14H110.599L114.099 9.59082V14H115.5V7.28027H114.242ZM117.045 10.6436C117.045 11.5869 117.387 12.4004 118.084 13.0977C118.781 13.7949 119.601 14.1436 120.545 14.1436C120.866 14.1436 121.187 14.0889 121.509 13.9863C121.823 13.8838 122.083 13.7744 122.288 13.6514C122.486 13.5283 122.678 13.3916 122.862 13.2344C123.04 13.0771 123.163 12.9678 123.218 12.8994C123.272 12.8311 123.313 12.7832 123.341 12.749L122.432 11.8398L122.22 12.0996C122.083 12.2637 121.857 12.4414 121.543 12.6191C121.228 12.7969 120.9 12.8857 120.545 12.8857C119.971 12.8857 119.478 12.667 119.061 12.2363C118.644 11.7988 118.439 11.2725 118.439 10.6436C118.439 10.0146 118.644 9.48828 119.061 9.05762C119.478 8.62012 119.971 8.4082 120.545 8.4082C120.9 8.4082 121.228 8.49707 121.543 8.68164C121.857 8.85938 122.056 9.00293 122.151 9.1123C122.247 9.22168 122.315 9.31055 122.363 9.38574L123.272 8.47656L122.978 8.15527C122.78 7.92969 122.459 7.7041 122.008 7.47852C121.557 7.25293 121.064 7.14355 120.545 7.14355C119.601 7.14355 118.781 7.49219 118.084 8.18945C117.387 8.88672 117.045 9.7002 117.045 10.6436ZM129.917 10.6436C129.917 11.2725 129.705 11.7988 129.295 12.2295C128.878 12.667 128.386 12.8789 127.818 12.8789C127.244 12.8789 126.752 12.667 126.335 12.2295C125.918 11.7988 125.713 11.2725 125.713 10.6436C125.713 10.0146 125.918 9.48828 126.335 9.05078C126.752 8.62012 127.244 8.40137 127.818 8.40137C128.386 8.40137 128.878 8.62012 129.295 9.05078C129.705 9.48828 129.917 10.0146 129.917 10.6436ZM124.318 10.6436C124.318 11.5869 124.66 12.4004 125.357 13.0977C126.055 13.7949 126.875 14.1436 127.818 14.1436C128.762 14.1436 129.575 13.7949 130.272 13.0977C130.97 12.4004 131.318 11.5869 131.318 10.6436C131.318 9.7002 130.97 8.87988 130.272 8.18262C129.575 7.48535 128.762 7.13672 127.818 7.13672C126.875 7.13672 126.055 7.48535 125.357 8.18262C124.66 8.87988 124.318 9.7002 124.318 10.6436ZM132.856 7.28027V14H136.22C136.931 14 137.498 13.8223 137.908 13.4531C138.318 13.0908 138.53 12.6191 138.53 12.0381C138.53 11.8193 138.489 11.6074 138.407 11.416C138.325 11.2246 138.236 11.0742 138.141 10.9648C138.045 10.8555 137.929 10.7529 137.799 10.6572C137.662 10.5615 137.573 10.5068 137.525 10.4795C137.471 10.459 137.436 10.4453 137.409 10.4385L137.6 10.3086C137.73 10.2129 137.86 10.0488 137.983 9.81641C138.106 9.58398 138.175 9.32422 138.175 9.03711C138.175 8.53125 137.983 8.10742 137.607 7.7793C137.224 7.45117 136.719 7.28711 136.076 7.28711L132.856 7.28027ZM136.22 10.999C136.486 10.999 136.705 11.0879 136.876 11.2656C137.04 11.4434 137.129 11.6553 137.129 11.9082C137.129 12.1816 137.047 12.4072 136.883 12.5713C136.719 12.7354 136.493 12.8174 136.22 12.8174H134.258V10.999H136.22ZM136.78 9.17383C136.78 9.39258 136.712 9.56348 136.589 9.68652C136.459 9.80957 136.288 9.87793 136.076 9.87793H134.258V8.47656H136.076C136.288 8.47656 136.459 8.53809 136.589 8.66113C136.712 8.78418 136.78 8.95508 136.78 9.17383Z" fill="#363A45"/>
</svg>
