<svg width="149" height="155" viewBox="0 0 149 155" fill="none" xmlns="http://www.w3.org/2000/svg">
<g filter="url(#filter0_d_1689_37043)">
<circle cx="74.0865" cy="52.2943" r="42.5" transform="rotate(0.819398 74.0865 52.2943)" fill="white"/>
<path d="M43.8003 41.3237L43.6677 41.5657C43.5792 41.7367 43.4326 41.9498 43.2283 42.1908C43.024 42.4318 42.7623 42.672 42.4717 42.9261C42.1811 43.1802 41.7616 43.4181 41.2419 43.6403C40.7078 43.8622 40.1319 43.9974 39.4997 44.0601L39.4597 46.8575L42.9743 46.9078L42.7601 61.8845L47.1785 61.9477L47.4728 41.3762L43.8003 41.3237ZM64.8849 48.5412C63.5077 48.5215 62.4283 48.75 61.6467 49.2267L61.9882 45.4149L70.5094 45.5367L70.5642 41.7065L58.0836 41.528L57.1838 53.2808L60.2639 53.6118L60.5855 53.2003C60.8044 52.9452 61.1956 52.6782 61.759 52.4136C62.3078 52.1632 62.941 52.0288 63.6583 52.039C64.6768 52.0536 65.5185 52.3956 66.1692 53.0506C66.8196 53.72 67.1381 54.528 67.1245 55.4748C67.1108 56.436 66.7985 57.2063 66.1586 57.7998C65.5188 58.3933 64.654 58.6679 63.5494 58.6521C62.6887 58.6398 61.8593 58.4414 61.0328 58.0422C60.2204 57.6575 59.694 57.3486 59.439 57.1154C59.1984 56.8824 59.0146 56.6932 58.8878 56.5336L56.2084 59.2789L56.4762 59.6127C56.6592 59.8592 56.9566 60.1361 57.3681 60.4577C57.7939 60.7794 58.2774 61.0877 58.8323 61.4113C59.3873 61.7349 60.115 62.0179 61.0012 62.2601C61.8873 62.5024 62.8183 62.6161 63.7938 62.6301C66.1178 62.6633 68.0067 62.016 69.4607 60.6737C70.9148 59.3314 71.6423 57.62 71.6721 55.5399C71.7004 53.5602 71.0782 51.9156 69.7773 50.5769C68.4905 49.2528 66.8646 48.5695 64.8849 48.5412ZM79.2635 52.1187C79.2942 49.9669 79.7484 48.309 80.6403 47.1452C81.5322 45.9814 82.5735 45.408 83.7785 45.4252C84.9692 45.4422 85.9936 46.0452 86.8519 47.234C87.6958 48.4226 88.1167 50.0931 88.0859 52.2449C88.0552 54.3967 87.5866 56.0544 86.7091 57.2185C85.8172 58.3823 84.7759 58.9557 83.5852 58.9386C82.3802 58.9214 81.3558 58.3185 80.4975 57.1296C79.6393 55.9408 79.2327 54.2705 79.2635 52.1187ZM92.49 52.3079C92.536 49.0945 91.7122 46.5 90.0332 44.5103C88.3398 42.5203 86.2739 41.5007 83.8351 41.4658C81.3821 41.4308 79.2878 42.3908 77.5382 44.3316C75.7887 46.2723 74.891 48.8421 74.8451 52.0555C74.7991 55.2689 75.6227 57.8778 77.316 59.8677C79.0092 61.872 81.0753 62.8773 83.5284 62.9123C85.9671 62.9472 88.0612 62.0015 89.811 60.0464C91.5462 58.1055 92.444 55.5213 92.49 52.3079ZM98.9837 52.4008C99.0145 50.2489 99.4687 48.591 100.361 47.4272C101.252 46.2634 102.294 45.69 103.499 45.7072C104.689 45.7243 105.714 46.3272 106.572 47.5161C107.416 48.7047 107.837 50.3751 107.806 52.5269C107.775 54.6788 107.307 56.3365 106.429 57.5005C105.537 58.6643 104.496 59.2377 103.305 59.2207C102.1 59.2034 101.076 58.6005 100.218 57.4117C99.3595 56.2228 98.9529 54.5526 98.9837 52.4008ZM112.21 52.5899C112.256 49.3765 111.432 46.7821 109.753 44.7923C108.06 42.8024 105.994 41.7828 103.555 41.7479C101.102 41.7128 99.0081 42.6729 97.2585 44.6136C95.5089 46.5543 94.6113 49.1242 94.5653 52.3376C94.5193 55.551 95.3429 58.1598 97.0363 60.1498C98.7294 62.1541 100.796 63.1593 103.249 63.1944C105.687 63.2293 107.781 62.2835 109.531 60.3285C111.266 58.3875 112.164 55.8033 112.21 52.5899Z" fill="#00C65E"/>
</g>
<path d="M4.14526 116.65V125.475H8.73315C9.69116 125.475 10.4558 125.228 11.0271 124.727C11.5984 124.235 11.8884 123.611 11.8884 122.864C11.8884 122.583 11.8357 122.319 11.7302 122.073C11.6248 121.836 11.5105 121.651 11.3875 121.511C11.2644 121.37 11.115 121.247 10.948 121.142C10.7722 121.036 10.658 120.966 10.5964 120.939C10.5261 120.922 10.4822 120.904 10.447 120.887L10.7107 120.72C10.8865 120.632 11.071 120.43 11.2556 120.131C11.4314 119.832 11.5281 119.489 11.5281 119.085C11.5281 118.426 11.2468 117.854 10.7019 117.371C10.1482 116.896 9.43628 116.65 8.55737 116.65H4.14526ZM8.55737 121.695C8.82983 121.695 9.04956 121.783 9.20776 121.95C9.36597 122.117 9.45386 122.328 9.45386 122.592C9.45386 122.855 9.36597 123.075 9.20776 123.242C9.04956 123.418 8.82983 123.497 8.55737 123.497H6.57104V121.695H8.55737ZM9.09351 119.357C9.09351 119.841 8.84741 120.078 8.3728 120.078H6.57104V118.637H8.3728C8.84741 118.637 9.09351 118.883 9.09351 119.357ZM22.0574 121.871L22.1453 120.887C22.1453 119.63 21.7234 118.584 20.8884 117.74C20.0447 116.896 18.9988 116.475 17.7419 116.475C16.4763 116.475 15.3953 116.932 14.4988 117.828C13.5935 118.725 13.1453 119.806 13.1453 121.062C13.1453 122.328 13.6023 123.409 14.5164 124.306C15.4304 125.202 16.5291 125.65 17.8298 125.65C18.2869 125.65 18.7263 125.598 19.157 125.492C19.5876 125.387 19.9392 125.272 20.2117 125.132C20.4753 124.991 20.7302 124.833 20.9763 124.657C21.2136 124.481 21.3718 124.358 21.4421 124.288L21.6091 124.121L20.3523 122.504L20.0974 122.776C19.9392 122.961 19.658 123.145 19.2712 123.321C18.8845 123.497 18.4626 123.585 18.0056 123.585C17.3728 123.585 16.8455 123.427 16.4324 123.093C16.0105 122.759 15.7556 122.354 15.6677 121.871H22.0574ZM17.7419 118.549C18.2517 118.549 18.6912 118.707 19.0427 119.006C19.3943 119.313 19.6228 119.7 19.7195 120.166H15.6677C15.8083 119.691 16.0632 119.296 16.4236 118.997C16.7839 118.698 17.2234 118.549 17.7419 118.549ZM23.9558 125.475H34.8455V127.549H37.2712V123.312H36.1023V116.65H33.6765V123.312H31.2419V116.65H28.8162V123.312H26.3816V116.65H23.9558V125.475ZM47.2644 121.871L47.3523 120.887C47.3523 119.63 46.9304 118.584 46.0955 117.74C45.2517 116.896 44.2058 116.475 42.949 116.475C41.6833 116.475 40.6023 116.932 39.7058 117.828C38.8005 118.725 38.3523 119.806 38.3523 121.062C38.3523 122.328 38.8093 123.409 39.7234 124.306C40.6375 125.202 41.7361 125.65 43.0369 125.65C43.4939 125.65 43.9333 125.598 44.364 125.492C44.7947 125.387 45.1462 125.272 45.4187 125.132C45.6824 124.991 45.9373 124.833 46.1833 124.657C46.4207 124.481 46.5789 124.358 46.6492 124.288L46.8162 124.121L45.5593 122.504L45.3044 122.776C45.1462 122.961 44.865 123.145 44.4783 123.321C44.0916 123.497 43.6697 123.585 43.2126 123.585C42.5798 123.585 42.0525 123.427 41.6394 123.093C41.2175 122.759 40.9626 122.354 40.8748 121.871H47.2644ZM42.949 118.549C43.4587 118.549 43.8982 118.707 44.2498 119.006C44.6013 119.313 44.8298 119.7 44.9265 120.166H40.8748C41.0154 119.691 41.2703 119.296 41.6306 118.997C41.991 118.698 42.4304 118.549 42.949 118.549ZM53.3025 113.864C52.9861 113.864 52.7312 113.768 52.5291 113.557C52.3181 113.354 52.2214 113.1 52.2214 112.792H50.4197C50.4197 113.557 50.6833 114.198 51.2283 114.717C51.7732 115.227 52.4587 115.49 53.3025 115.49C54.1375 115.49 54.823 115.227 55.3679 114.717C55.9128 114.198 56.1853 113.557 56.1853 112.792H54.3835C54.3835 113.1 54.2781 113.354 54.0759 113.557C53.865 113.768 53.6101 113.864 53.3025 113.864ZM55.4119 116.65L51.5886 121.607V116.65H49.1628V125.475H51.2634L55.1042 120.526V125.475H57.53V116.65H55.4119ZM65.9851 118.812H69.4041V125.475H71.8386V116.65H63.5593V125.475H65.9851V118.812ZM76.1541 121.071C76.1541 120.412 76.365 119.858 76.7957 119.401C77.2175 118.953 77.7273 118.725 78.3162 118.725C78.8962 118.725 79.406 118.953 79.8367 119.401C80.2585 119.858 80.4783 120.412 80.4783 121.071C80.4783 121.73 80.2585 122.284 79.8367 122.732C79.406 123.181 78.8962 123.4 78.3162 123.4C77.7273 123.4 77.2175 123.181 76.7957 122.732C76.365 122.284 76.1541 121.73 76.1541 121.071ZM82.9919 121.062C82.9919 119.841 82.5261 118.769 81.5945 117.854C80.6628 116.94 79.573 116.483 78.3162 116.483C77.0505 116.483 75.9607 116.94 75.0291 117.854C74.0974 118.769 73.6316 119.841 73.6316 121.062C73.6316 122.293 74.0974 123.365 75.0291 124.279C75.9607 125.193 77.0505 125.65 78.3162 125.65C79.573 125.65 80.6628 125.193 81.5945 124.279C82.5261 123.365 82.9919 122.293 82.9919 121.062ZM93.1609 116.65H90.3748L87.2195 120.254V116.65H84.7937V125.475H87.2195V123.312L88.3005 122.056L90.6384 125.475H93.3455L89.8298 120.438L93.1609 116.65ZM96.5798 126.011C96.2898 126.679 95.78 127.004 95.0505 127.004C94.6902 127.004 94.3914 126.951 94.1541 126.828V128.981L94.3298 129.043C94.4529 129.096 94.6375 129.14 94.9011 129.184C95.156 129.236 95.4197 129.254 95.6833 129.254C97.1599 129.254 98.2937 128.173 99.1023 126.011L102.609 116.65H100.095L98.0212 122.504L95.9558 116.65H93.4333L96.8523 125.387L96.5798 126.011ZM106.292 118.812H109.711V125.475H112.145V116.65H103.866V125.475H106.292V118.812ZM119.344 125.475H121.769V119.981C121.769 118.979 121.418 118.144 120.715 117.477C120.011 116.809 119.097 116.475 117.99 116.475C117.559 116.475 117.137 116.545 116.724 116.668C116.32 116.791 115.986 116.932 115.731 117.081C115.485 117.23 115.248 117.397 115.037 117.591C114.826 117.784 114.685 117.925 114.624 118.004C114.562 118.083 114.51 118.144 114.474 118.188L115.819 119.533L116.021 119.322C116.162 119.164 116.39 119.015 116.716 118.865C117.05 118.716 117.41 118.637 117.805 118.637C118.289 118.637 118.667 118.76 118.93 118.988C119.203 119.226 119.335 119.524 119.335 119.894L116.54 120.394C115.731 120.544 115.09 120.86 114.624 121.335C114.167 121.818 113.929 122.416 113.929 123.137C113.929 123.84 114.211 124.429 114.756 124.921C115.309 125.413 116.021 125.65 116.9 125.65C117.357 125.65 117.797 125.554 118.219 125.36C118.64 125.167 118.922 125.009 119.045 124.886C119.168 124.763 119.264 124.666 119.335 124.578L119.344 125.475ZM117.533 123.673C116.76 123.673 116.364 123.374 116.364 122.776C116.364 122.223 116.698 121.889 117.357 121.783L119.335 121.423V121.695C119.335 122.319 119.177 122.803 118.851 123.154C118.526 123.506 118.087 123.673 117.533 123.673ZM132.483 121.871L132.571 120.887C132.571 119.63 132.149 118.584 131.314 117.74C130.47 116.896 129.425 116.475 128.168 116.475C126.902 116.475 125.821 116.932 124.925 117.828C124.019 118.725 123.571 119.806 123.571 121.062C123.571 122.328 124.028 123.409 124.942 124.306C125.856 125.202 126.955 125.65 128.256 125.65C128.713 125.65 129.152 125.598 129.583 125.492C130.013 125.387 130.365 125.272 130.637 125.132C130.901 124.991 131.156 124.833 131.402 124.657C131.639 124.481 131.798 124.358 131.868 124.288L132.035 124.121L130.778 122.504L130.523 122.776C130.365 122.961 130.084 123.145 129.697 123.321C129.31 123.497 128.888 123.585 128.431 123.585C127.799 123.585 127.271 123.427 126.858 123.093C126.436 122.759 126.181 122.354 126.094 121.871H132.483ZM128.168 118.549C128.677 118.549 129.117 118.707 129.469 119.006C129.82 119.313 130.049 119.7 130.145 120.166H126.094C126.234 119.691 126.489 119.296 126.849 118.997C127.21 118.698 127.649 118.549 128.168 118.549ZM139.154 123.312L141.492 120.254V125.475H143.918V116.65H141.852L139.154 120.166L136.447 116.65H134.382V125.475H136.807V120.254L139.154 123.312ZM27.6296 143.65H24.8435L21.6882 147.254V143.65H19.2625V152.475H21.6882V150.312L22.7693 149.056L25.1072 152.475H27.8142L24.2986 147.438L27.6296 143.65ZM33.8435 152.475H36.2693V146.981C36.2693 145.979 35.9177 145.144 35.2146 144.477C34.5115 143.809 33.5974 143.475 32.49 143.475C32.0593 143.475 31.6375 143.545 31.2244 143.668C30.8201 143.791 30.4861 143.932 30.2312 144.081C29.9851 144.23 29.7478 144.397 29.5369 144.591C29.3259 144.784 29.1853 144.925 29.1238 145.004C29.0623 145.083 29.0095 145.144 28.9744 145.188L30.3191 146.533L30.5212 146.322C30.6619 146.164 30.8904 146.015 31.2156 145.865C31.5496 145.716 31.9099 145.637 32.3054 145.637C32.7888 145.637 33.1667 145.76 33.4304 145.988C33.7029 146.226 33.8347 146.524 33.8347 146.894L31.0398 147.394C30.2312 147.544 29.5896 147.86 29.1238 148.335C28.6667 148.818 28.4294 149.416 28.4294 150.137C28.4294 150.84 28.7107 151.429 29.2556 151.921C29.8093 152.413 30.5212 152.65 31.4001 152.65C31.8572 152.65 32.2966 152.554 32.7185 152.36C33.1404 152.167 33.4216 152.009 33.5447 151.886C33.6677 151.763 33.7644 151.666 33.8347 151.578L33.8435 152.475ZM32.033 150.673C31.2595 150.673 30.864 150.374 30.864 149.776C30.864 149.223 31.198 148.889 31.8572 148.783L33.8347 148.423V148.695C33.8347 149.319 33.6765 149.803 33.3513 150.154C33.0261 150.506 32.5867 150.673 32.033 150.673ZM43.2917 152.475H45.7263V149.952L46.5349 149.056L48.8728 152.475H51.571L48.0642 147.438L51.3953 143.65H48.6091L45.7263 146.981V143.65H43.2917V146.981L40.4177 143.65H37.6228L40.9539 147.438L37.447 152.475H40.1453L42.4832 149.056L43.2917 149.952V152.475ZM51.5798 150.312V154.549H54.0056V152.475H59.0505V154.549H61.4763V150.312H60.3074V143.65H53.5574V146.085C53.5574 146.639 53.5046 147.166 53.3992 147.667C53.2937 148.159 53.1794 148.563 53.0564 148.862C52.9333 149.161 52.7839 149.442 52.6169 149.697C52.45 149.943 52.3357 150.102 52.2654 150.172C52.1951 150.233 52.1511 150.286 52.116 150.321L51.5798 150.312ZM55.8074 145.821H57.8816V150.321H54.6384L54.946 149.855C55.1394 149.539 55.324 149.056 55.5173 148.396C55.7107 147.737 55.8074 147.061 55.8074 146.366V145.821ZM73.9919 143.65H71.5574V152.475H73.9919V143.65ZM65.5281 150.497V148.335H66.9695C67.2771 148.335 67.532 148.44 67.7341 148.643C67.9451 148.853 68.0417 149.108 68.0417 149.416C68.0417 149.732 67.9451 149.987 67.7341 150.189C67.532 150.4 67.2771 150.497 66.9695 150.497H65.5281ZM70.4851 149.416C70.4851 148.502 70.1775 147.764 69.571 147.201C68.9558 146.639 68.1208 146.357 67.0574 146.357H65.5281V143.65H63.1023V152.475H67.0574C68.1296 152.475 68.9646 152.193 69.571 151.631C70.1775 151.068 70.4851 150.33 70.4851 149.416ZM80.4783 140.864C80.1619 140.864 79.907 140.768 79.7048 140.557C79.4939 140.354 79.3972 140.1 79.3972 139.792H77.5955C77.5955 140.557 77.8591 141.198 78.4041 141.717C78.949 142.227 79.6345 142.49 80.4783 142.49C81.3132 142.49 81.9988 142.227 82.5437 141.717C83.0886 141.198 83.3611 140.557 83.3611 139.792H81.5593C81.5593 140.1 81.4539 140.354 81.2517 140.557C81.0408 140.768 80.7859 140.864 80.4783 140.864ZM82.5876 143.65L78.7644 148.607V143.65H76.3386V152.475H78.4392L82.28 147.526V152.475H84.7058V143.65H82.5876ZM89.5662 150.312V154.549H91.9919V152.475H97.0369V154.549H99.4626V150.312H98.2937V143.65H91.5437V146.085C91.5437 146.639 91.491 147.166 91.3855 147.667C91.28 148.159 91.1658 148.563 91.0427 148.862C90.9197 149.161 90.7703 149.442 90.6033 149.697C90.4363 149.943 90.322 150.102 90.2517 150.172C90.1814 150.233 90.1375 150.286 90.1023 150.321L89.5662 150.312ZM93.7937 145.821H95.8679V150.321H92.6248L92.9324 149.855C93.1257 149.539 93.3103 149.056 93.5037 148.396C93.697 147.737 93.7937 147.061 93.7937 146.366V145.821ZM109.456 148.871L109.544 147.887C109.544 146.63 109.122 145.584 108.287 144.74C107.443 143.896 106.397 143.475 105.14 143.475C103.875 143.475 102.794 143.932 101.897 144.828C100.992 145.725 100.544 146.806 100.544 148.062C100.544 149.328 101.001 150.409 101.915 151.306C102.829 152.202 103.927 152.65 105.228 152.65C105.685 152.65 106.125 152.598 106.555 152.492C106.986 152.387 107.338 152.272 107.61 152.132C107.874 151.991 108.129 151.833 108.375 151.657C108.612 151.481 108.77 151.358 108.841 151.288L109.008 151.121L107.751 149.504L107.496 149.776C107.338 149.961 107.056 150.145 106.67 150.321C106.283 150.497 105.861 150.585 105.404 150.585C104.771 150.585 104.244 150.427 103.831 150.093C103.409 149.759 103.154 149.354 103.066 148.871H109.456ZM105.14 145.549C105.65 145.549 106.09 145.707 106.441 146.006C106.793 146.313 107.021 146.7 107.118 147.166H103.066C103.207 146.691 103.462 146.296 103.822 145.997C104.182 145.698 104.622 145.549 105.14 145.549ZM113.78 149.144H117.199V152.475H119.634V143.65H117.199V146.981H113.78V143.65H111.354V152.475H113.78V149.144ZM124.397 150.497V148.335H125.927C126.243 148.335 126.498 148.44 126.7 148.643C126.902 148.853 127.008 149.108 127.008 149.416C127.008 149.732 126.902 149.987 126.7 150.189C126.489 150.4 126.234 150.497 125.927 150.497H124.397ZM129.442 149.416C129.442 148.502 129.135 147.764 128.528 147.201C127.922 146.639 127.087 146.357 126.023 146.357H124.397V143.65H121.971V152.475H126.023C127.087 152.475 127.922 152.193 128.528 151.631C129.135 151.068 129.442 150.33 129.442 149.416Z" fill="#00C65E"/>
<defs>
<filter id="filter0_d_1689_37043" x="19.9635" y="-0.60334" width="115.666" height="115.666" filterUnits="userSpaceOnUse" color-interpolation-filters="sRGB">
<feFlood flood-opacity="0" result="BackgroundImageFix"/>
<feColorMatrix in="SourceAlpha" type="matrix" values="0 0 0 0 0 0 0 0 0 0 0 0 0 0 0 0 0 0 127 0" result="hardAlpha"/>
<feOffset dx="3.67282" dy="4.89709"/>
<feGaussianBlur stdDeviation="7.34564"/>
<feColorMatrix type="matrix" values="0 0 0 0 0.211765 0 0 0 0 0.227451 0 0 0 0 0.270588 0 0 0 0.26 0"/>
<feBlend mode="normal" in2="BackgroundImageFix" result="effect1_dropShadow_1689_37043"/>
<feBlend mode="normal" in="SourceGraphic" in2="effect1_dropShadow_1689_37043" result="shape"/>
</filter>
</defs>
</svg>
