<svg width="186" height="129" viewBox="0 0 186 129" fill="none" xmlns="http://www.w3.org/2000/svg">
<g clip-path="url(#clip0_1689_38271)">
<path opacity="0.2" d="M148.469 103.154C145.906 123.519 124.21 134.938 105.971 125.52L46.2742 94.6941C24.7121 83.5599 24.2092 52.6486 45.4085 41.4914L113.496 5.65722C134.695 -5.49998 159.89 12.416 156.859 36.4932L148.469 103.154Z" fill="#00C65E"/>
<path d="M85.1851 33.8394H28.1921C25.1331 33.8394 22.6532 36.3218 22.6532 39.3839V77.8445C22.6532 80.9067 25.1331 83.3891 28.1921 83.3891H85.1851C88.2442 83.3891 90.724 80.9067 90.724 77.8445V39.3839C90.724 36.3218 88.2442 33.8394 85.1851 33.8394Z" fill="white"/>
<path d="M85.193 84.1906H28.192C26.5127 84.1906 24.9021 83.5233 23.7139 82.3354C22.5257 81.1475 21.8571 79.536 21.855 77.855V39.3865C21.8675 37.708 22.5392 36.1017 23.7249 34.9148C24.9106 33.7279 26.5152 33.0555 28.192 33.043H85.193C86.8698 33.0555 88.4743 33.7279 89.6601 34.9148C90.8458 36.1017 91.5174 37.708 91.53 39.3865V77.855C91.5278 79.536 90.8593 81.1475 89.6711 82.3354C88.4829 83.5233 86.8723 84.1906 85.193 84.1906ZM28.192 34.6568C26.9385 34.6693 25.7399 35.1733 24.8535 36.0606C23.9672 36.9479 23.4637 38.1477 23.4512 39.4025V77.855C23.4658 79.1084 23.9702 80.3062 24.8563 81.1918C25.7425 82.0773 26.9399 82.5802 28.192 82.5927H85.193C86.4451 82.5802 87.6425 82.0773 88.5287 81.1918C89.4148 80.3062 89.9192 79.1084 89.9337 77.855V39.3865C89.9213 38.1317 89.4178 36.9319 88.5314 36.0446C87.645 35.1573 86.4464 34.6533 85.193 34.6408L28.192 34.6568Z" fill="#00C65E"/>
<path d="M17.5306 83.29H95.0909C95.1713 83.29 95.2485 83.322 95.3054 83.379C95.3622 83.4359 95.3942 83.5131 95.3942 83.5936V86.1342C95.3942 86.5919 95.2126 87.0308 94.8893 87.3545C94.566 87.6781 94.1275 87.8599 93.6703 87.8599H18.9513C18.4941 87.8599 18.0556 87.6781 17.7323 87.3545C17.409 87.0308 17.2274 86.5919 17.2274 86.1342V83.6096C17.2252 83.5684 17.2314 83.5272 17.2457 83.4885C17.26 83.4498 17.282 83.4144 17.3103 83.3845C17.3387 83.3546 17.3729 83.3308 17.4108 83.3146C17.4487 83.2983 17.4894 83.29 17.5306 83.29Z" fill="#1E7836"/>
<path d="M27.7012 43.0818H30.0995V48.5571H31.1304C33.4437 48.5571 34.5999 47.4325 34.599 45.1833C34.599 42.98 33.5256 41.8788 31.3787 41.8796H30.9456V40.0972L31.2552 40.0972C33.1019 40.0972 34.5366 40.5406 35.5594 41.4273C36.5822 42.3141 37.0932 43.5488 37.0923 45.1313C37.0923 46.8162 36.5628 48.106 35.5038 49.0009C34.4448 49.8957 32.912 50.346 30.9053 50.3516H27.7012V43.0818Z" fill="#00C65E"/>
<path d="M30.1008 40.0972H27.7012V42.2363H30.1008V40.0972Z" fill="#00C65E"/>
<path d="M39.2295 43.9098H38.513V46.5066H39.2295V43.9098ZM39.2812 43.17C39.2812 43.051 39.2424 42.9528 39.1674 42.8803C39.0898 42.8079 38.9863 42.7717 38.857 42.7717C38.738 42.7717 38.6423 42.8079 38.5699 42.8803C38.4975 42.9528 38.4613 43.051 38.4613 43.17C38.4613 43.289 38.4949 43.3847 38.5673 43.4571C38.6397 43.5295 38.7354 43.5658 38.857 43.5658C38.9863 43.5658 39.0898 43.5295 39.1674 43.4571C39.2424 43.3847 39.2812 43.289 39.2812 43.17ZM40.6882 42.7976H39.9718V46.5066H40.6882V42.7976ZM42.0125 46.6644C41.9272 46.8609 41.7772 46.9566 41.5625 46.9566C41.4564 46.9566 41.3685 46.9411 41.2987 46.9049V47.5386L41.3504 47.5567C41.3866 47.5722 41.4409 47.5852 41.5185 47.5981C41.5935 47.6136 41.6711 47.6188 41.7487 47.6188C42.1832 47.6188 42.5169 47.3006 42.7549 46.6644L43.7869 43.9098H43.0471L42.4367 45.6324L41.8289 43.9098H41.0866L42.0927 46.4807L42.0125 46.6644ZM43.7558 46.1626C43.7558 46.2686 43.7972 46.3617 43.88 46.4393C43.9627 46.5195 44.061 46.5583 44.18 46.5583C44.2964 46.5583 44.3973 46.5195 44.48 46.4393C44.5628 46.3617 44.6042 46.2686 44.6042 46.1626C44.6042 46.0565 44.5628 45.9634 44.48 45.8832C44.3973 45.8057 44.2964 45.7643 44.18 45.7643C44.061 45.7643 43.9627 45.8057 43.88 45.8832C43.7972 45.9634 43.7558 46.0565 43.7558 46.1626ZM46.7225 43.8839H46.6165C46.4742 43.8839 46.3397 43.9175 46.2104 43.9796C46.0811 44.0443 45.9983 44.096 45.9595 44.1348C45.9233 44.1736 45.8923 44.2046 45.8716 44.2279V43.9098H45.1577V46.5066H45.8716V45.2625C45.8716 45.0401 45.9285 44.8693 46.0371 44.7504C46.1457 44.6314 46.2958 44.5719 46.482 44.5719C46.588 44.5745 46.6682 44.5848 46.7199 44.6029L46.7225 43.8839ZM48.8693 46.5066H49.5832V43.9098H48.8693V45.2884C48.8693 45.4849 48.8202 45.6349 48.7245 45.7384C48.6288 45.8444 48.4995 45.8962 48.3391 45.8962C48.1943 45.8962 48.0727 45.8496 47.977 45.7539C47.8813 45.6608 47.8347 45.5392 47.8347 45.3944V43.9098H47.1209V45.4642C47.1209 45.7953 47.214 46.0617 47.4002 46.2609C47.5864 46.46 47.8296 46.5583 48.127 46.5583C48.2667 46.5583 48.4012 46.5299 48.5305 46.473C48.6598 46.4161 48.7426 46.3695 48.7814 46.3333C48.8176 46.2971 48.8486 46.2686 48.8693 46.2428V46.5066Z" fill="#00C65E"/>
<rect x="55.0533" y="42.5352" width="28.4637" height="32.1702" rx="0.765818" fill="#FFB762"/>
<rect x="58.7669" y="50.3523" width="2.38501" height="21.0335" rx="0.765818" transform="rotate(-90 58.7669 50.3523)" fill="white"/>
<rect x="58.7681" y="59.0508" width="2.38501" height="16.7012" rx="0.765818" transform="rotate(-90 58.7681 59.0508)" fill="white"/>
<rect x="58.7669" y="67.7383" width="2.38501" height="14.2592" rx="0.765818" transform="rotate(-90 58.7669 67.7383)" fill="white"/>
<path d="M77.9323 68.6293L71.2291 66.1489C71.1813 66.1311 71.1294 66.1273 71.0794 66.138C71.0295 66.1486 70.9838 66.1733 70.9475 66.209C70.9113 66.2447 70.8861 66.29 70.875 66.3394C70.8639 66.3889 70.8673 66.4405 70.8849 66.4881L73.3959 73.1556C73.4154 73.2072 73.4506 73.2515 73.4967 73.2823C73.5427 73.3131 73.5973 73.3289 73.6528 73.3274C73.7083 73.326 73.762 73.3074 73.8063 73.2742C73.8507 73.241 73.8835 73.1949 73.9002 73.1423L74.618 70.8235L77.0517 73.1821C77.1017 73.2314 77.1693 73.2591 77.2398 73.2591C77.3103 73.2591 77.3779 73.2314 77.4279 73.1821L78.055 72.5593C78.1047 72.5096 78.1326 72.4425 78.1326 72.3725C78.1326 72.3025 78.1047 72.2353 78.055 72.1856L75.6294 69.8377L77.9323 69.1302C77.9847 69.1122 78.0302 69.0784 78.0624 69.0335C78.0945 68.9886 78.1118 68.9349 78.1118 68.8798C78.1118 68.8247 78.0945 68.7709 78.0624 68.726C78.0302 68.6812 77.9847 68.6474 77.9323 68.6293Z" fill="#00C65E"/>
<path d="M111.704 102.872C107.286 107.224 102.196 111.377 100.294 109.326C97.5747 106.394 95.9185 103.847 89.5717 108.889C83.2277 113.928 87.88 117.416 90.5157 120.255C93.5578 123.536 105.353 120.639 117.279 108.884C129.203 97.1259 132.529 85.1062 129.484 81.8258C126.849 78.9809 123.694 74.0356 118.528 80.3445C113.359 86.6534 115.749 88.4734 118.474 91.4088C120.367 93.459 116.118 98.5167 111.704 102.872Z" fill="#FFB762"/>
<path d="M108.524 101.711C104.104 106.067 99.0091 110.224 97.1095 108.176C94.3923 105.246 92.7381 102.701 86.387 107.748C80.0386 112.793 84.6882 116.276 87.3216 119.113C90.361 122.39 102.159 119.484 114.095 107.718C126.029 95.9505 129.365 83.9285 126.323 80.6509C123.69 77.8085 120.54 72.8662 115.368 79.1794C110.193 85.4925 112.582 87.3103 115.304 90.2432C117.196 92.2916 112.943 97.3528 108.524 101.711Z" fill="#F89358"/>
<path d="M123.381 17.75L123.205 18.082C123.088 18.3164 122.893 18.6094 122.619 18.9414C122.346 19.2734 121.994 19.6055 121.604 19.957C121.213 20.3086 120.646 20.6406 119.943 20.9531C119.221 21.2656 118.439 21.4609 117.58 21.5586V25.3672H122.365V45.7578H128.381V17.75H123.381Z" fill="white"/>
</g>
<defs>
<clipPath id="clip0_1689_38271">
<rect width="186" height="129" fill="white"/>
</clipPath>
</defs>
</svg>
